<?xml version="1.0" encoding="utf-8" standalone="no"?>
<!DOCTYPE svg PUBLIC "-//W3C//DTD SVG 1.1//EN"
  "http://www.w3.org/Graphics/SVG/1.1/DTD/svg11.dtd">
<!-- Created with matplotlib (http://matplotlib.org/) -->
<svg height="201pt" version="1.1" viewBox="0 0 288 201" width="288pt" xmlns="http://www.w3.org/2000/svg" xmlns:xlink="http://www.w3.org/1999/xlink">
 <defs>
  <style type="text/css">
*{stroke-linecap:butt;stroke-linejoin:round;}
  </style>
 </defs>
 <g id="figure_1">
  <g id="patch_1">
   <path d="M 0 201.6 
L 288 201.6 
L 288 0 
L 0 0 
z
" style="fill:#ffffff;"/>
  </g>
  <g id="axes_1">
   <g id="patch_2">
    <path d="M 47.38125 160.44375 
L 273.7 160.44375 
L 273.7 14.599219 
L 47.38125 14.599219 
z
" style="fill:#ffffff;"/>
   </g>
   <g id="matplotlib.axis_1">
    <g id="xtick_1">
     <g id="line2d_1">
      <defs>
       <path d="M 0 0 
L 0 3.5 
" id="m78e0d5b75d" style="stroke:#000000;stroke-width:0.8;"/>
      </defs>
      <g>
       <use style="stroke:#000000;stroke-width:0.8;" x="112.262382" xlink:href="#m78e0d5b75d" y="160.44375"/>
      </g>
     </g>
     <g id="text_1">
      <!-- 1 -->
      <defs>
       <path d="M 12.40625 8.296875 
L 28.515625 8.296875 
L 28.515625 63.921875 
L 10.984375 60.40625 
L 10.984375 69.390625 
L 28.421875 72.90625 
L 38.28125 72.90625 
L 38.28125 8.296875 
L 54.390625 8.296875 
L 54.390625 0 
L 12.40625 0 
z
" id="DejaVuSans-31"/>
      </defs>
      <g transform="translate(109.081132 175.042188)scale(0.1 -0.1)">
       <use xlink:href="#DejaVuSans-31"/>
      </g>
     </g>
    </g>
    <g id="xtick_2">
     <g id="line2d_2">
      <g>
       <use style="stroke:#000000;stroke-width:0.8;" x="236.346852" xlink:href="#m78e0d5b75d" y="160.44375"/>
      </g>
     </g>
     <g id="text_2">
      <!-- 10 -->
      <defs>
       <path d="M 31.78125 66.40625 
Q 24.171875 66.40625 20.328125 58.90625 
Q 16.5 51.421875 16.5 36.375 
Q 16.5 21.390625 20.328125 13.890625 
Q 24.171875 6.390625 31.78125 6.390625 
Q 39.453125 6.390625 43.28125 13.890625 
Q 47.125 21.390625 47.125 36.375 
Q 47.125 51.421875 43.28125 58.90625 
Q 39.453125 66.40625 31.78125 66.40625 
z
M 31.78125 74.21875 
Q 44.046875 74.21875 50.515625 64.515625 
Q 56.984375 54.828125 56.984375 36.375 
Q 56.984375 17.96875 50.515625 8.265625 
Q 44.046875 -1.421875 31.78125 -1.421875 
Q 19.53125 -1.421875 13.0625 8.265625 
Q 6.59375 17.96875 6.59375 36.375 
Q 6.59375 54.828125 13.0625 64.515625 
Q 19.53125 74.21875 31.78125 74.21875 
z
" id="DejaVuSans-30"/>
      </defs>
      <g transform="translate(229.984352 175.042188)scale(0.1 -0.1)">
       <use xlink:href="#DejaVuSans-31"/>
       <use x="63.623047" xlink:href="#DejaVuSans-30"/>
      </g>
     </g>
    </g>
    <g id="xtick_3">
     <g id="line2d_3">
      <defs>
       <path d="M 0 0 
L 0 2 
" id="m7f50ccfff6" style="stroke:#000000;stroke-width:0.6;"/>
      </defs>
      <g>
       <use style="stroke:#000000;stroke-width:0.6;" x="47.38125" xlink:href="#m7f50ccfff6" y="160.44375"/>
      </g>
     </g>
    </g>
    <g id="xtick_4">
     <g id="line2d_4">
      <g>
       <use style="stroke:#000000;stroke-width:0.6;" x="62.884207" xlink:href="#m7f50ccfff6" y="160.44375"/>
      </g>
     </g>
    </g>
    <g id="xtick_5">
     <g id="line2d_5">
      <g>
       <use style="stroke:#000000;stroke-width:0.6;" x="74.909235" xlink:href="#m7f50ccfff6" y="160.44375"/>
      </g>
     </g>
    </g>
    <g id="xtick_6">
     <g id="line2d_6">
      <g>
       <use style="stroke:#000000;stroke-width:0.6;" x="84.734398" xlink:href="#m7f50ccfff6" y="160.44375"/>
      </g>
     </g>
    </g>
    <g id="xtick_7">
     <g id="line2d_7">
      <g>
       <use style="stroke:#000000;stroke-width:0.6;" x="93.041454" xlink:href="#m7f50ccfff6" y="160.44375"/>
      </g>
     </g>
    </g>
    <g id="xtick_8">
     <g id="line2d_8">
      <g>
       <use style="stroke:#000000;stroke-width:0.6;" x="100.237355" xlink:href="#m7f50ccfff6" y="160.44375"/>
      </g>
     </g>
    </g>
    <g id="xtick_9">
     <g id="line2d_9">
      <g>
       <use style="stroke:#000000;stroke-width:0.6;" x="106.584588" xlink:href="#m7f50ccfff6" y="160.44375"/>
      </g>
     </g>
    </g>
    <g id="xtick_10">
     <g id="line2d_10">
      <g>
       <use style="stroke:#000000;stroke-width:0.6;" x="149.61553" xlink:href="#m7f50ccfff6" y="160.44375"/>
      </g>
     </g>
    </g>
    <g id="xtick_11">
     <g id="line2d_11">
      <g>
       <use style="stroke:#000000;stroke-width:0.6;" x="171.46572" xlink:href="#m7f50ccfff6" y="160.44375"/>
      </g>
     </g>
    </g>
    <g id="xtick_12">
     <g id="line2d_12">
      <g>
       <use style="stroke:#000000;stroke-width:0.6;" x="186.968677" xlink:href="#m7f50ccfff6" y="160.44375"/>
      </g>
     </g>
    </g>
    <g id="xtick_13">
     <g id="line2d_13">
      <g>
       <use style="stroke:#000000;stroke-width:0.6;" x="198.993705" xlink:href="#m7f50ccfff6" y="160.44375"/>
      </g>
     </g>
    </g>
    <g id="xtick_14">
     <g id="line2d_14">
      <g>
       <use style="stroke:#000000;stroke-width:0.6;" x="208.818868" xlink:href="#m7f50ccfff6" y="160.44375"/>
      </g>
     </g>
    </g>
    <g id="xtick_15">
     <g id="line2d_15">
      <g>
       <use style="stroke:#000000;stroke-width:0.6;" x="217.125925" xlink:href="#m7f50ccfff6" y="160.44375"/>
      </g>
     </g>
    </g>
    <g id="xtick_16">
     <g id="line2d_16">
      <g>
       <use style="stroke:#000000;stroke-width:0.6;" x="224.321825" xlink:href="#m7f50ccfff6" y="160.44375"/>
      </g>
     </g>
    </g>
    <g id="xtick_17">
     <g id="line2d_17">
      <g>
       <use style="stroke:#000000;stroke-width:0.6;" x="230.669058" xlink:href="#m7f50ccfff6" y="160.44375"/>
      </g>
     </g>
    </g>
    <g id="xtick_18">
     <g id="line2d_18">
      <g>
       <use style="stroke:#000000;stroke-width:0.6;" x="273.7" xlink:href="#m7f50ccfff6" y="160.44375"/>
      </g>
     </g>
    </g>
    <g id="text_3">
     <!-- Reduced volume -->
     <defs>
      <path d="M 44.390625 34.1875 
Q 47.5625 33.109375 50.5625 29.59375 
Q 53.5625 26.078125 56.59375 19.921875 
L 66.609375 0 
L 56 0 
L 46.6875 18.703125 
Q 43.0625 26.03125 39.671875 28.421875 
Q 36.28125 30.8125 30.421875 30.8125 
L 19.671875 30.8125 
L 19.671875 0 
L 9.8125 0 
L 9.8125 72.90625 
L 32.078125 72.90625 
Q 44.578125 72.90625 50.734375 67.671875 
Q 56.890625 62.453125 56.890625 51.90625 
Q 56.890625 45.015625 53.6875 40.46875 
Q 50.484375 35.9375 44.390625 34.1875 
z
M 19.671875 64.796875 
L 19.671875 38.921875 
L 32.078125 38.921875 
Q 39.203125 38.921875 42.84375 42.21875 
Q 46.484375 45.515625 46.484375 51.90625 
Q 46.484375 58.296875 42.84375 61.546875 
Q 39.203125 64.796875 32.078125 64.796875 
z
" id="DejaVuSans-52"/>
      <path d="M 56.203125 29.59375 
L 56.203125 25.203125 
L 14.890625 25.203125 
Q 15.484375 15.921875 20.484375 11.0625 
Q 25.484375 6.203125 34.421875 6.203125 
Q 39.59375 6.203125 44.453125 7.46875 
Q 49.3125 8.734375 54.109375 11.28125 
L 54.109375 2.78125 
Q 49.265625 0.734375 44.1875 -0.34375 
Q 39.109375 -1.421875 33.890625 -1.421875 
Q 20.796875 -1.421875 13.15625 6.1875 
Q 5.515625 13.8125 5.515625 26.8125 
Q 5.515625 40.234375 12.765625 48.109375 
Q 20.015625 56 32.328125 56 
Q 43.359375 56 49.78125 48.890625 
Q 56.203125 41.796875 56.203125 29.59375 
z
M 47.21875 32.234375 
Q 47.125 39.59375 43.09375 43.984375 
Q 39.0625 48.390625 32.421875 48.390625 
Q 24.90625 48.390625 20.390625 44.140625 
Q 15.875 39.890625 15.1875 32.171875 
z
" id="DejaVuSans-65"/>
      <path d="M 45.40625 46.390625 
L 45.40625 75.984375 
L 54.390625 75.984375 
L 54.390625 0 
L 45.40625 0 
L 45.40625 8.203125 
Q 42.578125 3.328125 38.25 0.953125 
Q 33.9375 -1.421875 27.875 -1.421875 
Q 17.96875 -1.421875 11.734375 6.484375 
Q 5.515625 14.40625 5.515625 27.296875 
Q 5.515625 40.1875 11.734375 48.09375 
Q 17.96875 56 27.875 56 
Q 33.9375 56 38.25 53.625 
Q 42.578125 51.265625 45.40625 46.390625 
z
M 14.796875 27.296875 
Q 14.796875 17.390625 18.875 11.75 
Q 22.953125 6.109375 30.078125 6.109375 
Q 37.203125 6.109375 41.296875 11.75 
Q 45.40625 17.390625 45.40625 27.296875 
Q 45.40625 37.203125 41.296875 42.84375 
Q 37.203125 48.484375 30.078125 48.484375 
Q 22.953125 48.484375 18.875 42.84375 
Q 14.796875 37.203125 14.796875 27.296875 
z
" id="DejaVuSans-64"/>
      <path d="M 8.5 21.578125 
L 8.5 54.6875 
L 17.484375 54.6875 
L 17.484375 21.921875 
Q 17.484375 14.15625 20.5 10.265625 
Q 23.53125 6.390625 29.59375 6.390625 
Q 36.859375 6.390625 41.078125 11.03125 
Q 45.3125 15.671875 45.3125 23.6875 
L 45.3125 54.6875 
L 54.296875 54.6875 
L 54.296875 0 
L 45.3125 0 
L 45.3125 8.40625 
Q 42.046875 3.421875 37.71875 1 
Q 33.40625 -1.421875 27.6875 -1.421875 
Q 18.265625 -1.421875 13.375 4.4375 
Q 8.5 10.296875 8.5 21.578125 
z
M 31.109375 56 
z
" id="DejaVuSans-75"/>
      <path d="M 48.78125 52.59375 
L 48.78125 44.1875 
Q 44.96875 46.296875 41.140625 47.34375 
Q 37.3125 48.390625 33.40625 48.390625 
Q 24.65625 48.390625 19.8125 42.84375 
Q 14.984375 37.3125 14.984375 27.296875 
Q 14.984375 17.28125 19.8125 11.734375 
Q 24.65625 6.203125 33.40625 6.203125 
Q 37.3125 6.203125 41.140625 7.25 
Q 44.96875 8.296875 48.78125 10.40625 
L 48.78125 2.09375 
Q 45.015625 0.34375 40.984375 -0.53125 
Q 36.96875 -1.421875 32.421875 -1.421875 
Q 20.0625 -1.421875 12.78125 6.34375 
Q 5.515625 14.109375 5.515625 27.296875 
Q 5.515625 40.671875 12.859375 48.328125 
Q 20.21875 56 33.015625 56 
Q 37.15625 56 41.109375 55.140625 
Q 45.0625 54.296875 48.78125 52.59375 
z
" id="DejaVuSans-63"/>
      <path id="DejaVuSans-20"/>
      <path d="M 2.984375 54.6875 
L 12.5 54.6875 
L 29.59375 8.796875 
L 46.6875 54.6875 
L 56.203125 54.6875 
L 35.6875 0 
L 23.484375 0 
z
" id="DejaVuSans-76"/>
      <path d="M 30.609375 48.390625 
Q 23.390625 48.390625 19.1875 42.75 
Q 14.984375 37.109375 14.984375 27.296875 
Q 14.984375 17.484375 19.15625 11.84375 
Q 23.34375 6.203125 30.609375 6.203125 
Q 37.796875 6.203125 41.984375 11.859375 
Q 46.1875 17.53125 46.1875 27.296875 
Q 46.1875 37.015625 41.984375 42.703125 
Q 37.796875 48.390625 30.609375 48.390625 
z
M 30.609375 56 
Q 42.328125 56 49.015625 48.375 
Q 55.71875 40.765625 55.71875 27.296875 
Q 55.71875 13.875 49.015625 6.21875 
Q 42.328125 -1.421875 30.609375 -1.421875 
Q 18.84375 -1.421875 12.171875 6.21875 
Q 5.515625 13.875 5.515625 27.296875 
Q 5.515625 40.765625 12.171875 48.375 
Q 18.84375 56 30.609375 56 
z
" id="DejaVuSans-6f"/>
      <path d="M 9.421875 75.984375 
L 18.40625 75.984375 
L 18.40625 0 
L 9.421875 0 
z
" id="DejaVuSans-6c"/>
      <path d="M 52 44.1875 
Q 55.375 50.25 60.0625 53.125 
Q 64.75 56 71.09375 56 
Q 79.640625 56 84.28125 50.015625 
Q 88.921875 44.046875 88.921875 33.015625 
L 88.921875 0 
L 79.890625 0 
L 79.890625 32.71875 
Q 79.890625 40.578125 77.09375 44.375 
Q 74.3125 48.1875 68.609375 48.1875 
Q 61.625 48.1875 57.5625 43.546875 
Q 53.515625 38.921875 53.515625 30.90625 
L 53.515625 0 
L 44.484375 0 
L 44.484375 32.71875 
Q 44.484375 40.625 41.703125 44.40625 
Q 38.921875 48.1875 33.109375 48.1875 
Q 26.21875 48.1875 22.15625 43.53125 
Q 18.109375 38.875 18.109375 30.90625 
L 18.109375 0 
L 9.078125 0 
L 9.078125 54.6875 
L 18.109375 54.6875 
L 18.109375 46.1875 
Q 21.1875 51.21875 25.484375 53.609375 
Q 29.78125 56 35.6875 56 
Q 41.65625 56 45.828125 52.96875 
Q 50 49.953125 52 44.1875 
z
" id="DejaVuSans-6d"/>
     </defs>
     <g transform="translate(118.5375 188.720313)scale(0.1 -0.1)">
      <use xlink:href="#DejaVuSans-52"/>
      <use x="69.419922" xlink:href="#DejaVuSans-65"/>
      <use x="130.943359" xlink:href="#DejaVuSans-64"/>
      <use x="194.419922" xlink:href="#DejaVuSans-75"/>
      <use x="257.798828" xlink:href="#DejaVuSans-63"/>
      <use x="312.779297" xlink:href="#DejaVuSans-65"/>
      <use x="374.302734" xlink:href="#DejaVuSans-64"/>
      <use x="437.779297" xlink:href="#DejaVuSans-20"/>
      <use x="469.566406" xlink:href="#DejaVuSans-76"/>
      <use x="528.746094" xlink:href="#DejaVuSans-6f"/>
      <use x="589.927734" xlink:href="#DejaVuSans-6c"/>
      <use x="617.710938" xlink:href="#DejaVuSans-75"/>
      <use x="681.089844" xlink:href="#DejaVuSans-6d"/>
      <use x="778.501953" xlink:href="#DejaVuSans-65"/>
     </g>
    </g>
   </g>
   <g id="matplotlib.axis_2">
    <g id="ytick_1">
     <g id="line2d_19">
      <defs>
       <path d="M 0 0 
L -3.5 0 
" id="mfccefc772e" style="stroke:#000000;stroke-width:0.8;"/>
      </defs>
      <g>
       <use style="stroke:#000000;stroke-width:0.8;" x="47.38125" xlink:href="#mfccefc772e" y="160.44375"/>
      </g>
     </g>
     <g id="text_4">
      <!-- 0.1 -->
      <defs>
       <path d="M 10.6875 12.40625 
L 21 12.40625 
L 21 0 
L 10.6875 0 
z
" id="DejaVuSans-2e"/>
      </defs>
      <g transform="translate(24.478125 164.242969)scale(0.1 -0.1)">
       <use xlink:href="#DejaVuSans-30"/>
       <use x="63.623047" xlink:href="#DejaVuSans-2e"/>
       <use x="95.410156" xlink:href="#DejaVuSans-31"/>
      </g>
     </g>
    </g>
    <g id="ytick_2">
     <g id="line2d_20">
      <g>
       <use style="stroke:#000000;stroke-width:0.8;" x="47.38125" xlink:href="#mfccefc772e" y="87.521484"/>
      </g>
     </g>
     <g id="text_5">
      <!-- 1 -->
      <g transform="translate(34.01875 91.320703)scale(0.1 -0.1)">
       <use xlink:href="#DejaVuSans-31"/>
      </g>
     </g>
    </g>
    <g id="ytick_3">
     <g id="line2d_21">
      <g>
       <use style="stroke:#000000;stroke-width:0.8;" x="47.38125" xlink:href="#mfccefc772e" y="14.599219"/>
      </g>
     </g>
     <g id="text_6">
      <!-- 10 -->
      <g transform="translate(27.65625 18.398438)scale(0.1 -0.1)">
       <use xlink:href="#DejaVuSans-31"/>
       <use x="63.623047" xlink:href="#DejaVuSans-30"/>
      </g>
     </g>
    </g>
    <g id="ytick_4">
     <g id="line2d_22">
      <defs>
       <path d="M 0 0 
L -2 0 
" id="m008067e552" style="stroke:#000000;stroke-width:0.6;"/>
      </defs>
      <g>
       <use style="stroke:#000000;stroke-width:0.6;" x="47.38125" xlink:href="#m008067e552" y="138.491961"/>
      </g>
     </g>
    </g>
    <g id="ytick_5">
     <g id="line2d_23">
      <g>
       <use style="stroke:#000000;stroke-width:0.6;" x="47.38125" xlink:href="#m008067e552" y="125.650987"/>
      </g>
     </g>
    </g>
    <g id="ytick_6">
     <g id="line2d_24">
      <g>
       <use style="stroke:#000000;stroke-width:0.6;" x="47.38125" xlink:href="#m008067e552" y="116.540171"/>
      </g>
     </g>
    </g>
    <g id="ytick_7">
     <g id="line2d_25">
      <g>
       <use style="stroke:#000000;stroke-width:0.6;" x="47.38125" xlink:href="#m008067e552" y="109.473274"/>
      </g>
     </g>
    </g>
    <g id="ytick_8">
     <g id="line2d_26">
      <g>
       <use style="stroke:#000000;stroke-width:0.6;" x="47.38125" xlink:href="#m008067e552" y="103.699198"/>
      </g>
     </g>
    </g>
    <g id="ytick_9">
     <g id="line2d_27">
      <g>
       <use style="stroke:#000000;stroke-width:0.6;" x="47.38125" xlink:href="#m008067e552" y="98.817286"/>
      </g>
     </g>
    </g>
    <g id="ytick_10">
     <g id="line2d_28">
      <g>
       <use style="stroke:#000000;stroke-width:0.6;" x="47.38125" xlink:href="#m008067e552" y="94.588382"/>
      </g>
     </g>
    </g>
    <g id="ytick_11">
     <g id="line2d_29">
      <g>
       <use style="stroke:#000000;stroke-width:0.6;" x="47.38125" xlink:href="#m008067e552" y="90.858224"/>
      </g>
     </g>
    </g>
    <g id="ytick_12">
     <g id="line2d_30">
      <g>
       <use style="stroke:#000000;stroke-width:0.6;" x="47.38125" xlink:href="#m008067e552" y="65.569695"/>
      </g>
     </g>
    </g>
    <g id="ytick_13">
     <g id="line2d_31">
      <g>
       <use style="stroke:#000000;stroke-width:0.6;" x="47.38125" xlink:href="#m008067e552" y="52.728722"/>
      </g>
     </g>
    </g>
    <g id="ytick_14">
     <g id="line2d_32">
      <g>
       <use style="stroke:#000000;stroke-width:0.6;" x="47.38125" xlink:href="#m008067e552" y="43.617906"/>
      </g>
     </g>
    </g>
    <g id="ytick_15">
     <g id="line2d_33">
      <g>
       <use style="stroke:#000000;stroke-width:0.6;" x="47.38125" xlink:href="#m008067e552" y="36.551008"/>
      </g>
     </g>
    </g>
    <g id="ytick_16">
     <g id="line2d_34">
      <g>
       <use style="stroke:#000000;stroke-width:0.6;" x="47.38125" xlink:href="#m008067e552" y="30.776932"/>
      </g>
     </g>
    </g>
    <g id="ytick_17">
     <g id="line2d_35">
      <g>
       <use style="stroke:#000000;stroke-width:0.6;" x="47.38125" xlink:href="#m008067e552" y="25.895021"/>
      </g>
     </g>
    </g>
    <g id="ytick_18">
     <g id="line2d_36">
      <g>
       <use style="stroke:#000000;stroke-width:0.6;" x="47.38125" xlink:href="#m008067e552" y="21.666116"/>
      </g>
     </g>
    </g>
    <g id="ytick_19">
     <g id="line2d_37">
      <g>
       <use style="stroke:#000000;stroke-width:0.6;" x="47.38125" xlink:href="#m008067e552" y="17.935959"/>
      </g>
     </g>
    </g>
    <g id="text_7">
     <!-- Reduced pressure -->
     <defs>
      <path d="M 18.109375 8.203125 
L 18.109375 -20.796875 
L 9.078125 -20.796875 
L 9.078125 54.6875 
L 18.109375 54.6875 
L 18.109375 46.390625 
Q 20.953125 51.265625 25.265625 53.625 
Q 29.59375 56 35.59375 56 
Q 45.5625 56 51.78125 48.09375 
Q 58.015625 40.1875 58.015625 27.296875 
Q 58.015625 14.40625 51.78125 6.484375 
Q 45.5625 -1.421875 35.59375 -1.421875 
Q 29.59375 -1.421875 25.265625 0.953125 
Q 20.953125 3.328125 18.109375 8.203125 
z
M 48.6875 27.296875 
Q 48.6875 37.203125 44.609375 42.84375 
Q 40.53125 48.484375 33.40625 48.484375 
Q 26.265625 48.484375 22.1875 42.84375 
Q 18.109375 37.203125 18.109375 27.296875 
Q 18.109375 17.390625 22.1875 11.75 
Q 26.265625 6.109375 33.40625 6.109375 
Q 40.53125 6.109375 44.609375 11.75 
Q 48.6875 17.390625 48.6875 27.296875 
z
" id="DejaVuSans-70"/>
      <path d="M 41.109375 46.296875 
Q 39.59375 47.171875 37.8125 47.578125 
Q 36.03125 48 33.890625 48 
Q 26.265625 48 22.1875 43.046875 
Q 18.109375 38.09375 18.109375 28.8125 
L 18.109375 0 
L 9.078125 0 
L 9.078125 54.6875 
L 18.109375 54.6875 
L 18.109375 46.1875 
Q 20.953125 51.171875 25.484375 53.578125 
Q 30.03125 56 36.53125 56 
Q 37.453125 56 38.578125 55.875 
Q 39.703125 55.765625 41.0625 55.515625 
z
" id="DejaVuSans-72"/>
      <path d="M 44.28125 53.078125 
L 44.28125 44.578125 
Q 40.484375 46.53125 36.375 47.5 
Q 32.28125 48.484375 27.875 48.484375 
Q 21.1875 48.484375 17.84375 46.4375 
Q 14.5 44.390625 14.5 40.28125 
Q 14.5 37.15625 16.890625 35.375 
Q 19.28125 33.59375 26.515625 31.984375 
L 29.59375 31.296875 
Q 39.15625 29.25 43.1875 25.515625 
Q 47.21875 21.78125 47.21875 15.09375 
Q 47.21875 7.46875 41.1875 3.015625 
Q 35.15625 -1.421875 24.609375 -1.421875 
Q 20.21875 -1.421875 15.453125 -0.5625 
Q 10.6875 0.296875 5.421875 2 
L 5.421875 11.28125 
Q 10.40625 8.6875 15.234375 7.390625 
Q 20.0625 6.109375 24.8125 6.109375 
Q 31.15625 6.109375 34.5625 8.28125 
Q 37.984375 10.453125 37.984375 14.40625 
Q 37.984375 18.0625 35.515625 20.015625 
Q 33.0625 21.96875 24.703125 23.78125 
L 21.578125 24.515625 
Q 13.234375 26.265625 9.515625 29.90625 
Q 5.8125 33.546875 5.8125 39.890625 
Q 5.8125 47.609375 11.28125 51.796875 
Q 16.75 56 26.8125 56 
Q 31.78125 56 36.171875 55.265625 
Q 40.578125 54.546875 44.28125 53.078125 
z
" id="DejaVuSans-73"/>
     </defs>
     <g transform="translate(18.398438 132.814453)rotate(-90)scale(0.1 -0.1)">
      <use xlink:href="#DejaVuSans-52"/>
      <use x="69.419922" xlink:href="#DejaVuSans-65"/>
      <use x="130.943359" xlink:href="#DejaVuSans-64"/>
      <use x="194.419922" xlink:href="#DejaVuSans-75"/>
      <use x="257.798828" xlink:href="#DejaVuSans-63"/>
      <use x="312.779297" xlink:href="#DejaVuSans-65"/>
      <use x="374.302734" xlink:href="#DejaVuSans-64"/>
      <use x="437.779297" xlink:href="#DejaVuSans-20"/>
      <use x="469.566406" xlink:href="#DejaVuSans-70"/>
      <use x="533.042969" xlink:href="#DejaVuSans-72"/>
      <use x="574.125" xlink:href="#DejaVuSans-65"/>
      <use x="635.648438" xlink:href="#DejaVuSans-73"/>
      <use x="687.748047" xlink:href="#DejaVuSans-73"/>
      <use x="739.847656" xlink:href="#DejaVuSans-75"/>
      <use x="803.226562" xlink:href="#DejaVuSans-72"/>
      <use x="844.308594" xlink:href="#DejaVuSans-65"/>
     </g>
    </g>
   </g>
   <g id="line2d_38">
    <path clip-path="url(#p4607a24703)" d="M 62.884207 35.005836 
L 63.930632 48.41373 
L 64.957124 64.526665 
L 65.964428 87.062655 
L 66.953249 138.794394 
L 67.924251 164.901763 
L 264.279071 165.009922 
L 273.7 170.041386 
L 273.7 170.041386 
" style="fill:none;stroke:#000000;stroke-linecap:square;"/>
   </g>
   <g id="line2d_39">
    <path clip-path="url(#p4607a24703)" d="M 62.884207 17.06824 
L 64.957124 34.675419 
L 66.953249 53.605335 
L 67.924251 64.352412 
L 68.878068 76.788559 
L 69.815295 92.386938 
L 71.642222 138.419446 
L 223.254677 138.524404 
L 233.837913 143.692629 
L 245.96027 149.866969 
L 259.984508 157.266864 
L 273.7 164.703342 
L 273.7 164.703342 
" style="fill:none;stroke:#000000;stroke-linecap:square;"/>
   </g>
   <g id="line2d_40">
    <path clip-path="url(#p4607a24703)" d="M 62.884207 5.68696 
L 71.642222 65.633381 
L 73.40924 80.158577 
L 75.120151 96.855632 
L 75.95566 106.686602 
L 76.778412 117.885686 
L 189.446778 117.966624 
L 197.057358 121.11772 
L 205.551855 124.879228 
L 215.126952 129.367409 
L 225.986488 134.709253 
L 238.41977 141.079804 
L 252.823642 148.717139 
L 269.800584 157.978455 
L 273.7 160.136599 
L 273.7 160.136599 
" style="fill:none;stroke:#000000;stroke-linecap:square;"/>
   </g>
   <g id="line2d_41">
    <path clip-path="url(#p4607a24703)" d="M 63.164894 -1 
L 65.964428 14.968227 
L 68.878068 30.289502 
L 72.532973 48.44801 
L 76.778412 68.460718 
L 79.949279 82.428544 
L 82.210696 91.526396 
L 84.381024 99.227787 
L 85.085469 101.310853 
L 158.552877 101.385658 
L 164.15901 103.042345 
L 170.254676 105.079016 
L 177.016567 107.578839 
L 184.481874 110.582859 
L 192.77312 114.165962 
L 201.994031 118.39836 
L 212.428717 123.439302 
L 224.268966 129.413186 
L 237.888435 136.541012 
L 253.780189 145.11653 
L 272.740523 155.609267 
L 273.7 156.146146 
L 273.7 156.146146 
" style="fill:none;stroke:#000000;stroke-linecap:square;"/>
   </g>
   <g id="line2d_42">
    <path clip-path="url(#p4607a24703)" d="M 64.430512 -1 
L 65.964428 6.680733 
L 68.878068 19.97842 
L 71.642222 31.407611 
L 74.271485 41.342625 
L 76.778412 49.977029 
L 79.173882 57.421822 
L 81.467385 63.756145 
L 83.66725 69.055661 
L 85.780823 73.406698 
L 87.814619 76.909837 
L 89.774442 79.676282 
L 91.665485 81.820674 
L 93.492413 83.453595 
L 95.25943 84.675801 
L 96.970342 85.574938 
L 98.628602 86.224494 
L 100.763107 86.804046 
L 103.317576 87.215598 
L 106.231215 87.43774 
L 110.762387 87.520401 
L 120.297042 87.639772 
L 125.499393 87.967161 
L 130.24344 88.48606 
L 135.158998 89.247308 
L 140.169425 90.245075 
L 145.670657 91.576351 
L 151.484707 93.222673 
L 157.650189 95.203821 
L 164.320114 97.582534 
L 171.676637 100.447763 
L 179.742579 103.833846 
L 188.633341 107.811342 
L 198.611962 112.524796 
L 209.865293 118.093196 
L 222.658611 124.678141 
L 237.47612 132.562592 
L 254.900084 142.094088 
L 273.7 152.6027 
L 273.7 152.6027 
" style="fill:none;stroke:#000000;stroke-linecap:square;stroke-width:2;"/>
   </g>
   <g id="line2d_43">
    <path clip-path="url(#p4607a24703)" d="M 65.718682 -1 
L 66.953249 4.403281 
L 69.815295 15.787367 
L 72.532973 25.401845 
L 75.120151 33.596449 
L 77.588791 40.590465 
L 79.949279 46.542172 
L 82.210696 51.580962 
L 84.381024 55.822003 
L 86.467319 59.371943 
L 88.475844 62.330085 
L 90.412192 64.787687 
L 92.281369 66.826864 
L 94.08788 68.519868 
L 96.406052 70.344929 
L 98.628602 71.785648 
L 101.28378 73.188554 
L 103.814254 74.275792 
L 107.168442 75.447198 
L 111.195234 76.592208 
L 117.685981 78.160174 
L 129.327454 80.960443 
L 136.253232 82.868237 
L 143.109565 84.986942 
L 150.24582 87.431692 
L 157.650189 90.206046 
L 165.591894 93.42002 
L 174.279163 97.17899 
L 183.813817 101.550699 
L 194.454376 106.67941 
L 206.442606 112.71124 
L 220.091974 119.83452 
L 235.922526 128.354341 
L 254.659909 138.69946 
L 273.7 149.416126 
L 273.7 149.416126 
" style="fill:none;stroke:#000000;stroke-linecap:square;"/>
   </g>
   <g id="line2d_44">
    <path clip-path="url(#p4607a24703)" d="M 67.0295 -1 
L 68.878068 5.981013 
L 71.642222 15.344524 
L 74.271485 23.228017 
L 76.778412 29.912958 
L 79.173882 35.597412 
L 81.467385 40.434654 
L 83.66725 44.551163 
L 85.780823 48.055108 
L 87.814619 51.040355 
L 89.774442 53.588461 
L 92.281369 56.426251 
L 94.676838 58.750523 
L 96.970342 60.673035 
L 99.706422 62.643833 
L 102.310272 64.254655 
L 105.277399 65.84501 
L 108.99537 67.566399 
L 113.308807 69.311354 
L 119.563844 71.582797 
L 141.167401 79.24674 
L 150.036541 82.719509 
L 159.08732 86.507961 
L 168.645924 90.756236 
L 179.012691 95.613869 
L 190.446607 101.224525 
L 203.180195 107.726116 
L 217.756215 115.425148 
L 234.67274 124.619835 
L 254.810144 135.826969 
L 273.7 146.521073 
L 273.7 146.521073 
" style="fill:none;stroke:#000000;stroke-linecap:square;"/>
   </g>
   <g id="line2d_45">
    <path clip-path="url(#p4607a24703)" d="M 68.369734 -1 
L 69.815295 3.900554 
L 72.532973 12.204325 
L 75.120151 19.1859 
L 77.588791 25.105246 
L 79.949279 30.150196 
L 82.210696 34.466181 
L 84.381024 38.170875 
L 86.467319 41.361895 
L 89.129055 44.957279 
L 91.665485 47.943215 
L 94.08788 50.44652 
L 96.970342 53.047715 
L 99.706422 55.200319 
L 102.816277 57.345314 
L 106.231215 59.412352 
L 110.326035 61.598981 
L 115.342603 63.98756 
L 122.087545 66.917547 
L 154.075075 80.473238 
L 164.959755 85.486746 
L 176.505765 91.056105 
L 189.041594 97.356222 
L 203.02354 104.63813 
L 218.995102 113.213955 
L 237.682672 123.50862 
L 260.229274 136.192738 
L 273.7 143.868643 
L 273.7 143.868643 
" style="fill:none;stroke:#000000;stroke-linecap:square;"/>
   </g>
   <g id="line2d_46">
    <path clip-path="url(#p4607a24703)" d="M 69.722291 -1 
L 70.7365 2.101067 
L 73.40924 9.564008 
L 75.95566 15.850316 
L 78.387164 21.195411 
L 80.713678 25.771593 
L 82.943894 29.711919 
L 85.085469 33.1227 
L 87.814619 36.994249 
L 90.412192 40.241603 
L 92.890293 42.993354 
L 95.835791 45.887319 
L 98.628602 48.312749 
L 101.79947 50.758813 
L 105.277399 53.141994 
L 108.99537 55.424329 
L 113.721753 58.041328 
L 119.563844 60.990453 
L 127.765339 64.852121 
L 158.731614 79.22283 
L 171.676637 85.583151 
L 185.250948 92.504119 
L 200.288277 100.426593 
L 217.336842 109.666639 
L 237.351808 120.775556 
L 261.64855 134.525238 
L 273.7 141.421296 
L 273.7 141.421296 
" style="fill:none;stroke:#000000;stroke-linecap:square;"/>
   </g>
   <g id="line2d_47">
    <path clip-path="url(#p4607a24703)" d="M 67.107483 164.901763 
L 68.424196 154.923695 
L 69.783374 146.283963 
L 71.186251 138.743817 
L 72.674893 131.949334 
L 74.217156 125.954702 
L 75.76633 120.796133 
L 77.364375 116.2144 
L 79.012032 112.139335 
L 80.70971 108.513895 
L 82.457313 105.291339 
L 84.25398 102.433119 
L 86.097684 99.907294 
L 87.984604 97.687319 
L 89.90812 95.751114 
L 91.997672 93.97018 
L 94.143111 92.443528 
L 96.334454 91.157705 
L 98.551261 90.101763 
L 101.066818 89.163228 
L 103.688302 88.440838 
L 106.422513 87.928841 
L 109.276593 87.623222 
L 112.15469 87.521611 
L 112.15469 87.521611 
" style="fill:none;stroke:#000000;stroke-dasharray:5.55,2.4;stroke-dashoffset:0;stroke-width:1.5;"/>
   </g>
   <g id="line2d_48">
    <path clip-path="url(#p4607a24703)" d="M 264.074497 164.901763 
L 240.186593 149.354373 
L 221.790465 137.636641 
L 206.899317 128.403507 
L 194.225958 120.796133 
L 183.084855 114.363491 
L 173.434386 109.041235 
L 164.816151 104.536146 
L 157.082212 100.740627 
L 150.126936 97.572137 
L 143.883047 94.967116 
L 138.325269 92.876762 
L 133.141538 91.157705 
L 128.291093 89.787687 
L 124.249419 88.852827 
L 120.178464 88.133243 
L 116.722344 87.724964 
L 115.386666 87.623222 
L 112.370247 87.521611 
L 112.370247 87.521611 
" style="fill:none;stroke:#000000;stroke-dasharray:5.55,2.4;stroke-dashoffset:0;stroke-width:1.5;"/>
   </g>
   <g id="patch_3">
    <path d="M 47.38125 160.44375 
L 47.38125 14.599219 
" style="fill:none;stroke:#000000;stroke-linecap:square;stroke-linejoin:miter;stroke-width:0.8;"/>
   </g>
   <g id="patch_4">
    <path d="M 273.7 160.44375 
L 273.7 14.599219 
" style="fill:none;stroke:#000000;stroke-linecap:square;stroke-linejoin:miter;stroke-width:0.8;"/>
   </g>
   <g id="patch_5">
    <path d="M 47.38125 160.44375 
L 273.7 160.44375 
" style="fill:none;stroke:#000000;stroke-linecap:square;stroke-linejoin:miter;stroke-width:0.8;"/>
   </g>
   <g id="patch_6">
    <path d="M 47.38125 14.599219 
L 273.7 14.599219 
" style="fill:none;stroke:#000000;stroke-linecap:square;stroke-linejoin:miter;stroke-width:0.8;"/>
   </g>
  </g>
 </g>
 <defs>
  <clipPath id="p4607a24703">
   <rect height="145.844531" width="226.31875" x="47.38125" y="14.599219"/>
  </clipPath>
 </defs>
</svg>
