<?xml version="1.0" encoding="utf-8" standalone="no"?>
<!DOCTYPE svg PUBLIC "-//W3C//DTD SVG 1.1//EN"
  "http://www.w3.org/Graphics/SVG/1.1/DTD/svg11.dtd">
<svg xmlns:xlink="http://www.w3.org/1999/xlink" width="288pt" height="201.6pt" viewBox="0 0 288 201.6" xmlns="http://www.w3.org/2000/svg" version="1.1">
 <metadata>
  <rdf:RDF xmlns:dc="http://purl.org/dc/elements/1.1/" xmlns:cc="http://creativecommons.org/ns#" xmlns:rdf="http://www.w3.org/1999/02/22-rdf-syntax-ns#">
   <cc:Work>
    <dc:type rdf:resource="http://purl.org/dc/dcmitype/StillImage"/>
    <dc:date>2023-11-21T13:07:20.529232</dc:date>
    <dc:format>image/svg+xml</dc:format>
    <dc:creator>
     <cc:Agent>
      <dc:title>Matplotlib v3.6.3, https://matplotlib.org/</dc:title>
     </cc:Agent>
    </dc:creator>
   </cc:Work>
  </rdf:RDF>
 </metadata>
 <defs>
  <style type="text/css">*{stroke-linejoin: round; stroke-linecap: butt}</style>
 </defs>
 <g id="figure_1">
  <g id="patch_1">
   <path d="M 0 201.6 
L 288 201.6 
L 288 0 
L 0 0 
L 0 201.6 
z
" style="fill: none"/>
  </g>
  <g id="axes_1">
   <g id="patch_2">
    <path d="M 47.38125 160.44375 
L 277.2 160.44375 
L 277.2 14.599219 
L 47.38125 14.599219 
L 47.38125 160.44375 
z
" style="fill: none"/>
   </g>
   <g id="matplotlib.axis_1">
    <g id="xtick_1">
     <g id="line2d_1">
      <defs>
       <path id="ma4315d7a3a" d="M 0 0 
L 0 3.5 
" style="stroke: #000000; stroke-width: 0.8"/>
      </defs>
      <g>
       <use xlink:href="#ma4315d7a3a" x="113.265763" y="160.44375" style="stroke: #000000; stroke-width: 0.8"/>
      </g>
     </g>
     <g id="text_1">
      <!-- 1 -->
      <g transform="translate(110.084513 175.042188) scale(0.1 -0.1)">
       <defs>
        <path id="DejaVuSans-31" d="M 794 531 
L 1825 531 
L 1825 4091 
L 703 3866 
L 703 4441 
L 1819 4666 
L 2450 4666 
L 2450 531 
L 3481 531 
L 3481 0 
L 794 0 
L 794 531 
z
" transform="scale(0.015625)"/>
       </defs>
       <use xlink:href="#DejaVuSans-31"/>
      </g>
     </g>
    </g>
    <g id="xtick_2">
     <g id="line2d_2">
      <g>
       <use xlink:href="#ma4315d7a3a" x="239.269189" y="160.44375" style="stroke: #000000; stroke-width: 0.8"/>
      </g>
     </g>
     <g id="text_2">
      <!-- 10 -->
      <g transform="translate(232.906689 175.042188) scale(0.1 -0.1)">
       <defs>
        <path id="DejaVuSans-30" d="M 2034 4250 
Q 1547 4250 1301 3770 
Q 1056 3291 1056 2328 
Q 1056 1369 1301 889 
Q 1547 409 2034 409 
Q 2525 409 2770 889 
Q 3016 1369 3016 2328 
Q 3016 3291 2770 3770 
Q 2525 4250 2034 4250 
z
M 2034 4750 
Q 2819 4750 3233 4129 
Q 3647 3509 3647 2328 
Q 3647 1150 3233 529 
Q 2819 -91 2034 -91 
Q 1250 -91 836 529 
Q 422 1150 422 2328 
Q 422 3509 836 4129 
Q 1250 4750 2034 4750 
z
" transform="scale(0.015625)"/>
       </defs>
       <use xlink:href="#DejaVuSans-31"/>
       <use xlink:href="#DejaVuSans-30" x="63.623047"/>
      </g>
     </g>
    </g>
    <g id="xtick_3">
     <g id="line2d_3">
      <defs>
       <path id="m700953510c" d="M 0 0 
L 0 2 
" style="stroke: #000000; stroke-width: 0.6"/>
      </defs>
      <g>
       <use xlink:href="#m700953510c" x="47.38125" y="160.44375" style="stroke: #000000; stroke-width: 0.6"/>
      </g>
     </g>
    </g>
    <g id="xtick_4">
     <g id="line2d_4">
      <g>
       <use xlink:href="#m700953510c" x="63.123959" y="160.44375" style="stroke: #000000; stroke-width: 0.6"/>
      </g>
     </g>
    </g>
    <g id="xtick_5">
     <g id="line2d_5">
      <g>
       <use xlink:href="#m700953510c" x="75.334952" y="160.44375" style="stroke: #000000; stroke-width: 0.6"/>
      </g>
     </g>
    </g>
    <g id="xtick_6">
     <g id="line2d_6">
      <g>
       <use xlink:href="#m700953510c" x="85.312061" y="160.44375" style="stroke: #000000; stroke-width: 0.6"/>
      </g>
     </g>
    </g>
    <g id="xtick_7">
     <g id="line2d_7">
      <g>
       <use xlink:href="#m700953510c" x="93.747586" y="160.44375" style="stroke: #000000; stroke-width: 0.6"/>
      </g>
     </g>
    </g>
    <g id="xtick_8">
     <g id="line2d_8">
      <g>
       <use xlink:href="#m700953510c" x="101.05477" y="160.44375" style="stroke: #000000; stroke-width: 0.6"/>
      </g>
     </g>
    </g>
    <g id="xtick_9">
     <g id="line2d_9">
      <g>
       <use xlink:href="#m700953510c" x="107.500163" y="160.44375" style="stroke: #000000; stroke-width: 0.6"/>
      </g>
     </g>
    </g>
    <g id="xtick_10">
     <g id="line2d_10">
      <g>
       <use xlink:href="#m700953510c" x="151.196574" y="160.44375" style="stroke: #000000; stroke-width: 0.6"/>
      </g>
     </g>
    </g>
    <g id="xtick_11">
     <g id="line2d_11">
      <g>
       <use xlink:href="#m700953510c" x="173.384676" y="160.44375" style="stroke: #000000; stroke-width: 0.6"/>
      </g>
     </g>
    </g>
    <g id="xtick_12">
     <g id="line2d_12">
      <g>
       <use xlink:href="#m700953510c" x="189.127385" y="160.44375" style="stroke: #000000; stroke-width: 0.6"/>
      </g>
     </g>
    </g>
    <g id="xtick_13">
     <g id="line2d_13">
      <g>
       <use xlink:href="#m700953510c" x="201.338378" y="160.44375" style="stroke: #000000; stroke-width: 0.6"/>
      </g>
     </g>
    </g>
    <g id="xtick_14">
     <g id="line2d_14">
      <g>
       <use xlink:href="#m700953510c" x="211.315487" y="160.44375" style="stroke: #000000; stroke-width: 0.6"/>
      </g>
     </g>
    </g>
    <g id="xtick_15">
     <g id="line2d_15">
      <g>
       <use xlink:href="#m700953510c" x="219.751012" y="160.44375" style="stroke: #000000; stroke-width: 0.6"/>
      </g>
     </g>
    </g>
    <g id="xtick_16">
     <g id="line2d_16">
      <g>
       <use xlink:href="#m700953510c" x="227.058196" y="160.44375" style="stroke: #000000; stroke-width: 0.6"/>
      </g>
     </g>
    </g>
    <g id="xtick_17">
     <g id="line2d_17">
      <g>
       <use xlink:href="#m700953510c" x="233.503589" y="160.44375" style="stroke: #000000; stroke-width: 0.6"/>
      </g>
     </g>
    </g>
    <g id="xtick_18">
     <g id="line2d_18">
      <g>
       <use xlink:href="#m700953510c" x="277.2" y="160.44375" style="stroke: #000000; stroke-width: 0.6"/>
      </g>
     </g>
    </g>
    <g id="text_3">
     <!-- Reduced volume -->
     <g transform="translate(120.509375 188.720313) scale(0.1 -0.1)">
      <defs>
       <path id="DejaVuSans-52" d="M 2841 2188 
Q 3044 2119 3236 1894 
Q 3428 1669 3622 1275 
L 4263 0 
L 3584 0 
L 2988 1197 
Q 2756 1666 2539 1819 
Q 2322 1972 1947 1972 
L 1259 1972 
L 1259 0 
L 628 0 
L 628 4666 
L 2053 4666 
Q 2853 4666 3247 4331 
Q 3641 3997 3641 3322 
Q 3641 2881 3436 2590 
Q 3231 2300 2841 2188 
z
M 1259 4147 
L 1259 2491 
L 2053 2491 
Q 2509 2491 2742 2702 
Q 2975 2913 2975 3322 
Q 2975 3731 2742 3939 
Q 2509 4147 2053 4147 
L 1259 4147 
z
" transform="scale(0.015625)"/>
       <path id="DejaVuSans-65" d="M 3597 1894 
L 3597 1613 
L 953 1613 
Q 991 1019 1311 708 
Q 1631 397 2203 397 
Q 2534 397 2845 478 
Q 3156 559 3463 722 
L 3463 178 
Q 3153 47 2828 -22 
Q 2503 -91 2169 -91 
Q 1331 -91 842 396 
Q 353 884 353 1716 
Q 353 2575 817 3079 
Q 1281 3584 2069 3584 
Q 2775 3584 3186 3129 
Q 3597 2675 3597 1894 
z
M 3022 2063 
Q 3016 2534 2758 2815 
Q 2500 3097 2075 3097 
Q 1594 3097 1305 2825 
Q 1016 2553 972 2059 
L 3022 2063 
z
" transform="scale(0.015625)"/>
       <path id="DejaVuSans-64" d="M 2906 2969 
L 2906 4863 
L 3481 4863 
L 3481 0 
L 2906 0 
L 2906 525 
Q 2725 213 2448 61 
Q 2172 -91 1784 -91 
Q 1150 -91 751 415 
Q 353 922 353 1747 
Q 353 2572 751 3078 
Q 1150 3584 1784 3584 
Q 2172 3584 2448 3432 
Q 2725 3281 2906 2969 
z
M 947 1747 
Q 947 1113 1208 752 
Q 1469 391 1925 391 
Q 2381 391 2643 752 
Q 2906 1113 2906 1747 
Q 2906 2381 2643 2742 
Q 2381 3103 1925 3103 
Q 1469 3103 1208 2742 
Q 947 2381 947 1747 
z
" transform="scale(0.015625)"/>
       <path id="DejaVuSans-75" d="M 544 1381 
L 544 3500 
L 1119 3500 
L 1119 1403 
Q 1119 906 1312 657 
Q 1506 409 1894 409 
Q 2359 409 2629 706 
Q 2900 1003 2900 1516 
L 2900 3500 
L 3475 3500 
L 3475 0 
L 2900 0 
L 2900 538 
Q 2691 219 2414 64 
Q 2138 -91 1772 -91 
Q 1169 -91 856 284 
Q 544 659 544 1381 
z
M 1991 3584 
L 1991 3584 
z
" transform="scale(0.015625)"/>
       <path id="DejaVuSans-63" d="M 3122 3366 
L 3122 2828 
Q 2878 2963 2633 3030 
Q 2388 3097 2138 3097 
Q 1578 3097 1268 2742 
Q 959 2388 959 1747 
Q 959 1106 1268 751 
Q 1578 397 2138 397 
Q 2388 397 2633 464 
Q 2878 531 3122 666 
L 3122 134 
Q 2881 22 2623 -34 
Q 2366 -91 2075 -91 
Q 1284 -91 818 406 
Q 353 903 353 1747 
Q 353 2603 823 3093 
Q 1294 3584 2113 3584 
Q 2378 3584 2631 3529 
Q 2884 3475 3122 3366 
z
" transform="scale(0.015625)"/>
       <path id="DejaVuSans-20" transform="scale(0.015625)"/>
       <path id="DejaVuSans-76" d="M 191 3500 
L 800 3500 
L 1894 563 
L 2988 3500 
L 3597 3500 
L 2284 0 
L 1503 0 
L 191 3500 
z
" transform="scale(0.015625)"/>
       <path id="DejaVuSans-6f" d="M 1959 3097 
Q 1497 3097 1228 2736 
Q 959 2375 959 1747 
Q 959 1119 1226 758 
Q 1494 397 1959 397 
Q 2419 397 2687 759 
Q 2956 1122 2956 1747 
Q 2956 2369 2687 2733 
Q 2419 3097 1959 3097 
z
M 1959 3584 
Q 2709 3584 3137 3096 
Q 3566 2609 3566 1747 
Q 3566 888 3137 398 
Q 2709 -91 1959 -91 
Q 1206 -91 779 398 
Q 353 888 353 1747 
Q 353 2609 779 3096 
Q 1206 3584 1959 3584 
z
" transform="scale(0.015625)"/>
       <path id="DejaVuSans-6c" d="M 603 4863 
L 1178 4863 
L 1178 0 
L 603 0 
L 603 4863 
z
" transform="scale(0.015625)"/>
       <path id="DejaVuSans-6d" d="M 3328 2828 
Q 3544 3216 3844 3400 
Q 4144 3584 4550 3584 
Q 5097 3584 5394 3201 
Q 5691 2819 5691 2113 
L 5691 0 
L 5113 0 
L 5113 2094 
Q 5113 2597 4934 2840 
Q 4756 3084 4391 3084 
Q 3944 3084 3684 2787 
Q 3425 2491 3425 1978 
L 3425 0 
L 2847 0 
L 2847 2094 
Q 2847 2600 2669 2842 
Q 2491 3084 2119 3084 
Q 1678 3084 1418 2786 
Q 1159 2488 1159 1978 
L 1159 0 
L 581 0 
L 581 3500 
L 1159 3500 
L 1159 2956 
Q 1356 3278 1631 3431 
Q 1906 3584 2284 3584 
Q 2666 3584 2933 3390 
Q 3200 3197 3328 2828 
z
" transform="scale(0.015625)"/>
      </defs>
      <use xlink:href="#DejaVuSans-52"/>
      <use xlink:href="#DejaVuSans-65" x="64.982422"/>
      <use xlink:href="#DejaVuSans-64" x="126.505859"/>
      <use xlink:href="#DejaVuSans-75" x="189.982422"/>
      <use xlink:href="#DejaVuSans-63" x="253.361328"/>
      <use xlink:href="#DejaVuSans-65" x="308.341797"/>
      <use xlink:href="#DejaVuSans-64" x="369.865234"/>
      <use xlink:href="#DejaVuSans-20" x="433.341797"/>
      <use xlink:href="#DejaVuSans-76" x="465.128906"/>
      <use xlink:href="#DejaVuSans-6f" x="524.308594"/>
      <use xlink:href="#DejaVuSans-6c" x="585.490234"/>
      <use xlink:href="#DejaVuSans-75" x="613.273438"/>
      <use xlink:href="#DejaVuSans-6d" x="676.652344"/>
      <use xlink:href="#DejaVuSans-65" x="774.064453"/>
     </g>
    </g>
   </g>
   <g id="matplotlib.axis_2">
    <g id="ytick_1">
     <g id="line2d_19">
      <defs>
       <path id="m94291b357e" d="M 0 0 
L -3.5 0 
" style="stroke: #000000; stroke-width: 0.8"/>
      </defs>
      <g>
       <use xlink:href="#m94291b357e" x="47.38125" y="160.44375" style="stroke: #000000; stroke-width: 0.8"/>
      </g>
     </g>
     <g id="text_4">
      <!-- 0.1 -->
      <g transform="translate(24.478125 164.242969) scale(0.1 -0.1)">
       <defs>
        <path id="DejaVuSans-2e" d="M 684 794 
L 1344 794 
L 1344 0 
L 684 0 
L 684 794 
z
" transform="scale(0.015625)"/>
       </defs>
       <use xlink:href="#DejaVuSans-30"/>
       <use xlink:href="#DejaVuSans-2e" x="63.623047"/>
       <use xlink:href="#DejaVuSans-31" x="95.410156"/>
      </g>
     </g>
    </g>
    <g id="ytick_2">
     <g id="line2d_20">
      <g>
       <use xlink:href="#m94291b357e" x="47.38125" y="87.521484" style="stroke: #000000; stroke-width: 0.8"/>
      </g>
     </g>
     <g id="text_5">
      <!-- 1 -->
      <g transform="translate(34.01875 91.320703) scale(0.1 -0.1)">
       <use xlink:href="#DejaVuSans-31"/>
      </g>
     </g>
    </g>
    <g id="ytick_3">
     <g id="line2d_21">
      <g>
       <use xlink:href="#m94291b357e" x="47.38125" y="14.599219" style="stroke: #000000; stroke-width: 0.8"/>
      </g>
     </g>
     <g id="text_6">
      <!-- 10 -->
      <g transform="translate(27.65625 18.398438) scale(0.1 -0.1)">
       <use xlink:href="#DejaVuSans-31"/>
       <use xlink:href="#DejaVuSans-30" x="63.623047"/>
      </g>
     </g>
    </g>
    <g id="ytick_4">
     <g id="line2d_22">
      <defs>
       <path id="m1cf4b71a41" d="M 0 0 
L -2 0 
" style="stroke: #000000; stroke-width: 0.6"/>
      </defs>
      <g>
       <use xlink:href="#m1cf4b71a41" x="47.38125" y="138.491961" style="stroke: #000000; stroke-width: 0.6"/>
      </g>
     </g>
    </g>
    <g id="ytick_5">
     <g id="line2d_23">
      <g>
       <use xlink:href="#m1cf4b71a41" x="47.38125" y="125.650987" style="stroke: #000000; stroke-width: 0.6"/>
      </g>
     </g>
    </g>
    <g id="ytick_6">
     <g id="line2d_24">
      <g>
       <use xlink:href="#m1cf4b71a41" x="47.38125" y="116.540171" style="stroke: #000000; stroke-width: 0.6"/>
      </g>
     </g>
    </g>
    <g id="ytick_7">
     <g id="line2d_25">
      <g>
       <use xlink:href="#m1cf4b71a41" x="47.38125" y="109.473274" style="stroke: #000000; stroke-width: 0.6"/>
      </g>
     </g>
    </g>
    <g id="ytick_8">
     <g id="line2d_26">
      <g>
       <use xlink:href="#m1cf4b71a41" x="47.38125" y="103.699198" style="stroke: #000000; stroke-width: 0.6"/>
      </g>
     </g>
    </g>
    <g id="ytick_9">
     <g id="line2d_27">
      <g>
       <use xlink:href="#m1cf4b71a41" x="47.38125" y="98.817286" style="stroke: #000000; stroke-width: 0.6"/>
      </g>
     </g>
    </g>
    <g id="ytick_10">
     <g id="line2d_28">
      <g>
       <use xlink:href="#m1cf4b71a41" x="47.38125" y="94.588382" style="stroke: #000000; stroke-width: 0.6"/>
      </g>
     </g>
    </g>
    <g id="ytick_11">
     <g id="line2d_29">
      <g>
       <use xlink:href="#m1cf4b71a41" x="47.38125" y="90.858224" style="stroke: #000000; stroke-width: 0.6"/>
      </g>
     </g>
    </g>
    <g id="ytick_12">
     <g id="line2d_30">
      <g>
       <use xlink:href="#m1cf4b71a41" x="47.38125" y="65.569695" style="stroke: #000000; stroke-width: 0.6"/>
      </g>
     </g>
    </g>
    <g id="ytick_13">
     <g id="line2d_31">
      <g>
       <use xlink:href="#m1cf4b71a41" x="47.38125" y="52.728722" style="stroke: #000000; stroke-width: 0.6"/>
      </g>
     </g>
    </g>
    <g id="ytick_14">
     <g id="line2d_32">
      <g>
       <use xlink:href="#m1cf4b71a41" x="47.38125" y="43.617906" style="stroke: #000000; stroke-width: 0.6"/>
      </g>
     </g>
    </g>
    <g id="ytick_15">
     <g id="line2d_33">
      <g>
       <use xlink:href="#m1cf4b71a41" x="47.38125" y="36.551008" style="stroke: #000000; stroke-width: 0.6"/>
      </g>
     </g>
    </g>
    <g id="ytick_16">
     <g id="line2d_34">
      <g>
       <use xlink:href="#m1cf4b71a41" x="47.38125" y="30.776932" style="stroke: #000000; stroke-width: 0.6"/>
      </g>
     </g>
    </g>
    <g id="ytick_17">
     <g id="line2d_35">
      <g>
       <use xlink:href="#m1cf4b71a41" x="47.38125" y="25.895021" style="stroke: #000000; stroke-width: 0.6"/>
      </g>
     </g>
    </g>
    <g id="ytick_18">
     <g id="line2d_36">
      <g>
       <use xlink:href="#m1cf4b71a41" x="47.38125" y="21.666116" style="stroke: #000000; stroke-width: 0.6"/>
      </g>
     </g>
    </g>
    <g id="ytick_19">
     <g id="line2d_37">
      <g>
       <use xlink:href="#m1cf4b71a41" x="47.38125" y="17.935959" style="stroke: #000000; stroke-width: 0.6"/>
      </g>
     </g>
    </g>
    <g id="text_7">
     <!-- Reduced pressure -->
     <g transform="translate(18.398438 132.370703) rotate(-90) scale(0.1 -0.1)">
      <defs>
       <path id="DejaVuSans-70" d="M 1159 525 
L 1159 -1331 
L 581 -1331 
L 581 3500 
L 1159 3500 
L 1159 2969 
Q 1341 3281 1617 3432 
Q 1894 3584 2278 3584 
Q 2916 3584 3314 3078 
Q 3713 2572 3713 1747 
Q 3713 922 3314 415 
Q 2916 -91 2278 -91 
Q 1894 -91 1617 61 
Q 1341 213 1159 525 
z
M 3116 1747 
Q 3116 2381 2855 2742 
Q 2594 3103 2138 3103 
Q 1681 3103 1420 2742 
Q 1159 2381 1159 1747 
Q 1159 1113 1420 752 
Q 1681 391 2138 391 
Q 2594 391 2855 752 
Q 3116 1113 3116 1747 
z
" transform="scale(0.015625)"/>
       <path id="DejaVuSans-72" d="M 2631 2963 
Q 2534 3019 2420 3045 
Q 2306 3072 2169 3072 
Q 1681 3072 1420 2755 
Q 1159 2438 1159 1844 
L 1159 0 
L 581 0 
L 581 3500 
L 1159 3500 
L 1159 2956 
Q 1341 3275 1631 3429 
Q 1922 3584 2338 3584 
Q 2397 3584 2469 3576 
Q 2541 3569 2628 3553 
L 2631 2963 
z
" transform="scale(0.015625)"/>
       <path id="DejaVuSans-73" d="M 2834 3397 
L 2834 2853 
Q 2591 2978 2328 3040 
Q 2066 3103 1784 3103 
Q 1356 3103 1142 2972 
Q 928 2841 928 2578 
Q 928 2378 1081 2264 
Q 1234 2150 1697 2047 
L 1894 2003 
Q 2506 1872 2764 1633 
Q 3022 1394 3022 966 
Q 3022 478 2636 193 
Q 2250 -91 1575 -91 
Q 1294 -91 989 -36 
Q 684 19 347 128 
L 347 722 
Q 666 556 975 473 
Q 1284 391 1588 391 
Q 1994 391 2212 530 
Q 2431 669 2431 922 
Q 2431 1156 2273 1281 
Q 2116 1406 1581 1522 
L 1381 1569 
Q 847 1681 609 1914 
Q 372 2147 372 2553 
Q 372 3047 722 3315 
Q 1072 3584 1716 3584 
Q 2034 3584 2315 3537 
Q 2597 3491 2834 3397 
z
" transform="scale(0.015625)"/>
      </defs>
      <use xlink:href="#DejaVuSans-52"/>
      <use xlink:href="#DejaVuSans-65" x="64.982422"/>
      <use xlink:href="#DejaVuSans-64" x="126.505859"/>
      <use xlink:href="#DejaVuSans-75" x="189.982422"/>
      <use xlink:href="#DejaVuSans-63" x="253.361328"/>
      <use xlink:href="#DejaVuSans-65" x="308.341797"/>
      <use xlink:href="#DejaVuSans-64" x="369.865234"/>
      <use xlink:href="#DejaVuSans-20" x="433.341797"/>
      <use xlink:href="#DejaVuSans-70" x="465.128906"/>
      <use xlink:href="#DejaVuSans-72" x="528.605469"/>
      <use xlink:href="#DejaVuSans-65" x="567.46875"/>
      <use xlink:href="#DejaVuSans-73" x="628.992188"/>
      <use xlink:href="#DejaVuSans-73" x="681.091797"/>
      <use xlink:href="#DejaVuSans-75" x="733.191406"/>
      <use xlink:href="#DejaVuSans-72" x="796.570312"/>
      <use xlink:href="#DejaVuSans-65" x="835.433594"/>
     </g>
    </g>
   </g>
   <g id="line2d_38">
    <path d="M 59.749707 -1 
L 63.030758 33.917251 
L 65.66069 72.79863 
L 68.170005 164.901763 
L 267.580099 164.982177 
L 277.2 170.041386 
L 277.2 170.041386 
" clip-path="url(#p479918f98b)" style="fill: none; stroke: #000000; stroke-linecap: square"/>
   </g>
   <g id="line2d_39">
    <path d="M 60.936074 -1 
L 65.66069 38.473957 
L 68.170005 63.515398 
L 72.867767 138.419446 
L 225.887494 138.483549 
L 236.585426 143.625797 
L 248.879707 149.789561 
L 263.105343 157.178746 
L 277.2 164.703342 
L 277.2 164.703342 
" clip-path="url(#p479918f98b)" style="fill: none; stroke: #000000; stroke-linecap: square"/>
   </g>
   <g id="line2d_40">
    <path d="M 62.18455 -1 
L 63.030758 5.057192 
L 70.569281 55.04659 
L 72.867767 72.272545 
L 75.073589 91.915741 
L 77.193931 117.671826 
L 79.235171 117.885686 
L 191.714298 117.994288 
L 199.585781 121.208007 
L 208.201548 124.970709 
L 217.915094 129.459239 
L 228.959516 134.81363 
L 241.653842 141.22349 
L 256.296085 148.873654 
L 273.586862 158.166943 
L 277.2 160.136599 
L 277.2 160.136599 
" clip-path="url(#p479918f98b)" style="fill: none; stroke: #000000; stroke-linecap: square"/>
   </g>
   <g id="line2d_41">
    <path d="M 63.421207 -1 
L 65.66069 11.775277 
L 68.170005 25.008701 
L 72.867767 48.189312 
L 77.193931 68.284877 
L 81.203 85.498338 
L 83.102515 92.837581 
L 84.938301 99.179815 
L 86.714495 101.310853 
L 160.376369 101.413905 
L 165.991136 103.050467 
L 172.193731 105.092482 
L 179.072657 107.598355 
L 186.609175 110.585758 
L 194.951621 114.135249 
L 204.267385 118.343748 
L 214.808844 123.355494 
L 226.840846 129.330333 
L 240.614073 136.425563 
L 256.688751 144.963992 
L 275.838416 155.396008 
L 277.2 156.146146 
L 277.2 156.146146 
" clip-path="url(#p479918f98b)" style="fill: none; stroke: #000000; stroke-linecap: square"/>
   </g>
   <g id="line2d_42">
    <path d="M 64.726814 -1 
L 65.66069 3.838775 
L 68.170005 15.462833 
L 70.569281 25.642047 
L 72.867767 34.668585 
L 75.073589 42.706021 
L 77.193931 49.850764 
L 79.235171 56.164568 
L 81.203 61.693884 
L 83.102515 66.481911 
L 84.938301 70.575616 
L 86.714495 74.028789 
L 88.434845 76.902038 
L 90.102756 79.260726 
L 91.721329 81.171903 
L 93.293401 82.701171 
L 94.821569 83.910082 
L 96.308219 84.854384 
L 97.755546 85.583099 
L 99.165579 86.138313 
L 101.881115 86.863944 
L 104.468243 87.246575 
L 108.133123 87.474016 
L 114.799738 87.522474 
L 121.67217 87.649801 
L 126.945499 87.987766 
L 131.755031 88.516209 
L 136.879075 89.311201 
L 142.201846 90.376103 
L 147.629644 91.690659 
L 153.606603 93.376025 
L 159.919628 95.393104 
L 166.806012 97.832528 
L 174.349693 100.748193 
L 182.517206 104.14555 
L 191.714298 108.218513 
L 201.976633 113.014635 
L 213.446294 118.625321 
L 226.57015 125.298238 
L 241.75674 133.276121 
L 259.658521 142.939241 
L 277.2 152.6027 
L 277.2 152.6027 
" clip-path="url(#p479918f98b)" style="fill: none; stroke: #000000; stroke-width: 2; stroke-linecap: square"/>
   </g>
   <g id="line2d_43">
    <path d="M 66.014937 -1 
L 68.170005 8.137744 
L 70.569281 17.274092 
L 72.867767 25.223287 
L 75.073589 32.179628 
L 77.193931 38.274884 
L 79.235171 43.607628 
L 81.203 48.258682 
L 83.102515 52.299295 
L 84.938301 55.7952 
L 86.714495 58.808261 
L 88.434845 61.396811 
L 90.102756 63.615359 
L 91.721329 65.514123 
L 93.293401 67.138644 
L 94.821569 68.529583 
L 97.755546 70.749232 
L 100.540189 72.405472 
L 103.189967 73.668074 
L 105.717341 74.657887 
L 109.302163 75.809021 
L 113.743521 76.983209 
L 125.243567 79.648361 
L 133.268649 81.659146 
L 140.265969 83.643877 
L 147.052467 85.79104 
L 154.626514 88.434245 
L 162.604585 91.47311 
L 171.083038 94.952294 
L 180.350447 99.005427 
L 190.416334 103.654116 
L 201.763548 109.144837 
L 214.640369 115.630927 
L 229.347794 123.295287 
L 246.575497 132.532034 
L 267.193962 143.848733 
L 277.2 149.416126 
L 277.2 149.416126 
" clip-path="url(#p479918f98b)" style="fill: none; stroke: #000000; stroke-linecap: square"/>
   </g>
   <g id="line2d_44">
    <path d="M 67.366877 -1 
L 68.170005 2.192702 
L 70.569281 10.661421 
L 72.867767 17.957383 
L 75.073589 24.292793 
L 77.193931 29.816085 
L 79.235171 34.639789 
L 81.203 38.854881 
L 83.102515 42.538387 
L 84.938301 45.757457 
L 86.714495 48.571521 
L 88.434845 51.033461 
L 90.102756 53.190288 
L 91.721329 55.083604 
L 94.821569 58.221499 
L 97.755546 60.687106 
L 100.540189 62.659891 
L 103.189967 64.271796 
L 106.938562 66.21544 
L 110.446751 67.776392 
L 115.835954 69.870434 
L 123.486998 72.542472 
L 138.936259 77.89539 
L 148.200797 81.371126 
L 157.096106 84.946213 
L 166.400091 88.923386 
L 176.423924 93.450517 
L 187.447588 98.676531 
L 199.807499 104.78953 
L 213.790125 111.962125 
L 229.861249 120.464709 
L 248.789378 130.739894 
L 271.716444 143.449604 
L 277.2 146.521073 
L 277.2 146.521073 
" clip-path="url(#p479918f98b)" style="fill: none; stroke: #000000; stroke-linecap: square"/>
   </g>
   <g id="line2d_45">
    <path d="M 68.712759 -1 
L 70.569281 5.193824 
L 72.867767 12.051327 
L 75.073589 17.983654 
L 77.193931 23.146939 
L 79.235171 27.658989 
L 81.203 31.613484 
L 83.102515 35.087745 
L 84.938301 38.147151 
L 86.714495 40.847795 
L 88.434845 43.238152 
L 91.721329 47.2505 
L 94.821569 50.457381 
L 97.755546 53.062843 
L 100.540189 55.218154 
L 103.189967 57.034848 
L 106.938562 59.298393 
L 111.567888 61.731626 
L 116.852912 64.191881 
L 124.37233 67.383792 
L 152.040183 78.856272 
L 163.039544 83.76401 
L 174.349693 89.05574 
L 186.609175 95.040528 
L 200.248259 101.952734 
L 215.643526 110.010786 
L 233.565878 119.651221 
L 254.858691 131.366367 
L 277.2 143.868643 
L 277.2 143.868643 
" clip-path="url(#p479918f98b)" style="fill: none; stroke: #000000; stroke-linecap: square"/>
   </g>
   <g id="line2d_46">
    <path d="M 70.08942 -1 
L 70.569281 0.532655 
L 72.867767 7.07548 
L 75.073589 12.725014 
L 77.193931 17.640834 
L 79.235171 21.942442 
L 81.203 25.723608 
L 83.102515 29.060398 
L 84.938301 32.015916 
L 86.714495 34.643281 
L 90.102756 39.087433 
L 93.293401 42.680785 
L 96.308219 45.63484 
L 99.165579 48.105426 
L 101.881115 50.207528 
L 105.717341 52.849672 
L 109.302163 55.04995 
L 113.743521 57.514731 
L 119.795084 60.564754 
L 127.777018 64.292549 
L 162.604585 80.246574 
L 175.741213 86.642704 
L 189.888404 93.786905 
L 205.477613 101.917275 
L 223.212841 111.42501 
L 244.169981 122.921513 
L 269.779827 137.235006 
L 277.2 141.421296 
L 277.2 141.421296 
" clip-path="url(#p479918f98b)" style="fill: none; stroke: #000000; stroke-linecap: square"/>
   </g>
   <g id="line2d_47">
    <defs>
     <path id="m8ecc44709e" d="M 0 3 
C 0.795609 3 1.55874 2.683901 2.12132 2.12132 
C 2.683901 1.55874 3 0.795609 3 0 
C 3 -0.795609 2.683901 -1.55874 2.12132 -2.12132 
C 1.55874 -2.683901 0.795609 -3 0 -3 
C -0.795609 -3 -1.55874 -2.683901 -2.12132 -2.12132 
C -2.683901 -1.55874 -3 -0.795609 -3 0 
C -3 0.795609 -2.683901 1.55874 -2.12132 2.12132 
C -1.55874 2.683901 -0.795609 3 0 3 
z
" style="stroke: #000000"/>
    </defs>
    <g clip-path="url(#p479918f98b)">
     <use xlink:href="#m8ecc44709e" x="113.265763" y="87.521484" style="stroke: #000000"/>
    </g>
   </g>
   <g id="line2d_48">
    <path d="M 67.412547 164.901763 
L 68.732088 155.043406 
L 70.109383 146.401522 
L 71.53071 138.859423 
L 73.017901 132.149317 
L 74.555131 126.228073 
L 76.144065 120.982828 
L 77.786361 116.323873 
L 79.453402 112.247666 
L 81.170318 108.621206 
L 82.936818 105.397741 
L 84.751776 102.538714 
L 86.612812 100.012175 
L 88.515624 97.791572 
L 90.514045 95.798551 
L 92.55396 94.073382 
L 94.706082 92.546299 
L 96.896838 91.260113 
L 99.224811 90.151425 
L 101.582653 89.265073 
L 104.124303 88.54248 
L 106.673351 88.030338 
L 109.574777 87.673798 
L 111.110243 87.572223 
L 111.110243 87.572223 
" clip-path="url(#p479918f98b)" style="fill: none; stroke-dasharray: 5.55,2.4; stroke-dashoffset: 0; stroke: #000000; stroke-width: 1.5"/>
   </g>
   <g id="line2d_49">
    <path d="M 267.425639 164.901763 
L 243.027134 149.264824 
L 224.377897 137.568675 
L 209.141295 128.268325 
L 196.295683 120.679435 
L 185.126273 114.331679 
L 175.337062 109.016512 
L 166.594121 104.517101 
L 158.747651 100.726142 
L 151.69069 97.561306 
L 145.355138 94.959187 
L 139.559741 92.816872 
L 134.279337 91.100783 
L 129.532728 89.785261 
L 125.173873 88.799795 
L 121.299131 88.132502 
L 117.790904 87.724634 
L 115.491422 87.572223 
L 115.491422 87.572223 
" clip-path="url(#p479918f98b)" style="fill: none; stroke-dasharray: 5.55,2.4; stroke-dashoffset: 0; stroke: #000000; stroke-width: 1.5"/>
   </g>
   <g id="patch_3">
    <path d="M 47.38125 160.44375 
L 47.38125 14.599219 
" style="fill: none; stroke: #000000; stroke-width: 0.8; stroke-linejoin: miter; stroke-linecap: square"/>
   </g>
   <g id="patch_4">
    <path d="M 277.2 160.44375 
L 277.2 14.599219 
" style="fill: none; stroke: #000000; stroke-width: 0.8; stroke-linejoin: miter; stroke-linecap: square"/>
   </g>
   <g id="patch_5">
    <path d="M 47.38125 160.44375 
L 277.2 160.44375 
" style="fill: none; stroke: #000000; stroke-width: 0.8; stroke-linejoin: miter; stroke-linecap: square"/>
   </g>
   <g id="patch_6">
    <path d="M 47.38125 14.599219 
L 277.2 14.599219 
" style="fill: none; stroke: #000000; stroke-width: 0.8; stroke-linejoin: miter; stroke-linecap: square"/>
   </g>
  </g>
 </g>
 <defs>
  <clipPath id="p479918f98b">
   <rect x="47.38125" y="14.599219" width="229.81875" height="145.844531"/>
  </clipPath>
 </defs>
</svg>
