<?xml version="1.0" encoding="utf-8" standalone="no"?>
<!DOCTYPE svg PUBLIC "-//W3C//DTD SVG 1.1//EN"
  "http://www.w3.org/Graphics/SVG/1.1/DTD/svg11.dtd">
<svg xmlns:xlink="http://www.w3.org/1999/xlink" width="288pt" height="201.6pt" viewBox="0 0 288 201.6" xmlns="http://www.w3.org/2000/svg" version="1.1">
 <metadata>
  <rdf:RDF xmlns:dc="http://purl.org/dc/elements/1.1/" xmlns:cc="http://creativecommons.org/ns#" xmlns:rdf="http://www.w3.org/1999/02/22-rdf-syntax-ns#">
   <cc:Work>
    <dc:type rdf:resource="http://purl.org/dc/dcmitype/StillImage"/>
    <dc:date>2023-11-21T13:55:52.131224</dc:date>
    <dc:format>image/svg+xml</dc:format>
    <dc:creator>
     <cc:Agent>
      <dc:title>Matplotlib v3.6.3, https://matplotlib.org/</dc:title>
     </cc:Agent>
    </dc:creator>
   </cc:Work>
  </rdf:RDF>
 </metadata>
 <defs>
  <style type="text/css">*{stroke-linejoin: round; stroke-linecap: butt}</style>
 </defs>
 <g id="figure_1">
  <g id="patch_1">
   <path d="M 0 201.6 
L 288 201.6 
L 288 0 
L 0 0 
L 0 201.6 
z
" style="fill: none"/>
  </g>
  <g id="axes_1">
   <g id="patch_2">
    <path d="M 47.38125 160.44375 
L 274.01875 160.44375 
L 274.01875 14.599219 
L 47.38125 14.599219 
L 47.38125 160.44375 
z
" style="fill: none"/>
   </g>
   <g id="matplotlib.axis_1">
    <g id="xtick_1">
     <g id="line2d_1">
      <defs>
       <path id="me50d4da31c" d="M 0 0 
L 0 3.5 
" style="stroke: #000000; stroke-width: 0.8"/>
      </defs>
      <g>
       <use xlink:href="#me50d4da31c" x="47.38125" y="160.44375" style="stroke: #000000; stroke-width: 0.8"/>
      </g>
     </g>
     <g id="text_1">
      <!-- −2 -->
      <g transform="translate(40.010156 175.042188) scale(0.1 -0.1)">
       <defs>
        <path id="DejaVuSans-2212" d="M 678 2272 
L 4684 2272 
L 4684 1741 
L 678 1741 
L 678 2272 
z
" transform="scale(0.015625)"/>
        <path id="DejaVuSans-32" d="M 1228 531 
L 3431 531 
L 3431 0 
L 469 0 
L 469 531 
Q 828 903 1448 1529 
Q 2069 2156 2228 2338 
Q 2531 2678 2651 2914 
Q 2772 3150 2772 3378 
Q 2772 3750 2511 3984 
Q 2250 4219 1831 4219 
Q 1534 4219 1204 4116 
Q 875 4013 500 3803 
L 500 4441 
Q 881 4594 1212 4672 
Q 1544 4750 1819 4750 
Q 2544 4750 2975 4387 
Q 3406 4025 3406 3419 
Q 3406 3131 3298 2873 
Q 3191 2616 2906 2266 
Q 2828 2175 2409 1742 
Q 1991 1309 1228 531 
z
" transform="scale(0.015625)"/>
       </defs>
       <use xlink:href="#DejaVuSans-2212"/>
       <use xlink:href="#DejaVuSans-32" x="83.789062"/>
      </g>
     </g>
    </g>
    <g id="xtick_2">
     <g id="line2d_2">
      <g>
       <use xlink:href="#me50d4da31c" x="104.040625" y="160.44375" style="stroke: #000000; stroke-width: 0.8"/>
      </g>
     </g>
     <g id="text_2">
      <!-- −1 -->
      <g transform="translate(96.669531 175.042188) scale(0.1 -0.1)">
       <defs>
        <path id="DejaVuSans-31" d="M 794 531 
L 1825 531 
L 1825 4091 
L 703 3866 
L 703 4441 
L 1819 4666 
L 2450 4666 
L 2450 531 
L 3481 531 
L 3481 0 
L 794 0 
L 794 531 
z
" transform="scale(0.015625)"/>
       </defs>
       <use xlink:href="#DejaVuSans-2212"/>
       <use xlink:href="#DejaVuSans-31" x="83.789062"/>
      </g>
     </g>
    </g>
    <g id="xtick_3">
     <g id="line2d_3">
      <g>
       <use xlink:href="#me50d4da31c" x="160.7" y="160.44375" style="stroke: #000000; stroke-width: 0.8"/>
      </g>
     </g>
     <g id="text_3">
      <!-- 0 -->
      <g transform="translate(157.51875 175.042188) scale(0.1 -0.1)">
       <defs>
        <path id="DejaVuSans-30" d="M 2034 4250 
Q 1547 4250 1301 3770 
Q 1056 3291 1056 2328 
Q 1056 1369 1301 889 
Q 1547 409 2034 409 
Q 2525 409 2770 889 
Q 3016 1369 3016 2328 
Q 3016 3291 2770 3770 
Q 2525 4250 2034 4250 
z
M 2034 4750 
Q 2819 4750 3233 4129 
Q 3647 3509 3647 2328 
Q 3647 1150 3233 529 
Q 2819 -91 2034 -91 
Q 1250 -91 836 529 
Q 422 1150 422 2328 
Q 422 3509 836 4129 
Q 1250 4750 2034 4750 
z
" transform="scale(0.015625)"/>
       </defs>
       <use xlink:href="#DejaVuSans-30"/>
      </g>
     </g>
    </g>
    <g id="xtick_4">
     <g id="line2d_4">
      <g>
       <use xlink:href="#me50d4da31c" x="217.359375" y="160.44375" style="stroke: #000000; stroke-width: 0.8"/>
      </g>
     </g>
     <g id="text_4">
      <!-- 1 -->
      <g transform="translate(214.178125 175.042188) scale(0.1 -0.1)">
       <use xlink:href="#DejaVuSans-31"/>
      </g>
     </g>
    </g>
    <g id="xtick_5">
     <g id="line2d_5">
      <g>
       <use xlink:href="#me50d4da31c" x="274.01875" y="160.44375" style="stroke: #000000; stroke-width: 0.8"/>
      </g>
     </g>
     <g id="text_5">
      <!-- 2 -->
      <g transform="translate(270.8375 175.042188) scale(0.1 -0.1)">
       <use xlink:href="#DejaVuSans-32"/>
      </g>
     </g>
    </g>
    <g id="text_6">
     <!-- Nondimensional entropy -->
     <g transform="translate(99.446875 188.720313) scale(0.1 -0.1)">
      <defs>
       <path id="DejaVuSans-4e" d="M 628 4666 
L 1478 4666 
L 3547 763 
L 3547 4666 
L 4159 4666 
L 4159 0 
L 3309 0 
L 1241 3903 
L 1241 0 
L 628 0 
L 628 4666 
z
" transform="scale(0.015625)"/>
       <path id="DejaVuSans-6f" d="M 1959 3097 
Q 1497 3097 1228 2736 
Q 959 2375 959 1747 
Q 959 1119 1226 758 
Q 1494 397 1959 397 
Q 2419 397 2687 759 
Q 2956 1122 2956 1747 
Q 2956 2369 2687 2733 
Q 2419 3097 1959 3097 
z
M 1959 3584 
Q 2709 3584 3137 3096 
Q 3566 2609 3566 1747 
Q 3566 888 3137 398 
Q 2709 -91 1959 -91 
Q 1206 -91 779 398 
Q 353 888 353 1747 
Q 353 2609 779 3096 
Q 1206 3584 1959 3584 
z
" transform="scale(0.015625)"/>
       <path id="DejaVuSans-6e" d="M 3513 2113 
L 3513 0 
L 2938 0 
L 2938 2094 
Q 2938 2591 2744 2837 
Q 2550 3084 2163 3084 
Q 1697 3084 1428 2787 
Q 1159 2491 1159 1978 
L 1159 0 
L 581 0 
L 581 3500 
L 1159 3500 
L 1159 2956 
Q 1366 3272 1645 3428 
Q 1925 3584 2291 3584 
Q 2894 3584 3203 3211 
Q 3513 2838 3513 2113 
z
" transform="scale(0.015625)"/>
       <path id="DejaVuSans-64" d="M 2906 2969 
L 2906 4863 
L 3481 4863 
L 3481 0 
L 2906 0 
L 2906 525 
Q 2725 213 2448 61 
Q 2172 -91 1784 -91 
Q 1150 -91 751 415 
Q 353 922 353 1747 
Q 353 2572 751 3078 
Q 1150 3584 1784 3584 
Q 2172 3584 2448 3432 
Q 2725 3281 2906 2969 
z
M 947 1747 
Q 947 1113 1208 752 
Q 1469 391 1925 391 
Q 2381 391 2643 752 
Q 2906 1113 2906 1747 
Q 2906 2381 2643 2742 
Q 2381 3103 1925 3103 
Q 1469 3103 1208 2742 
Q 947 2381 947 1747 
z
" transform="scale(0.015625)"/>
       <path id="DejaVuSans-69" d="M 603 3500 
L 1178 3500 
L 1178 0 
L 603 0 
L 603 3500 
z
M 603 4863 
L 1178 4863 
L 1178 4134 
L 603 4134 
L 603 4863 
z
" transform="scale(0.015625)"/>
       <path id="DejaVuSans-6d" d="M 3328 2828 
Q 3544 3216 3844 3400 
Q 4144 3584 4550 3584 
Q 5097 3584 5394 3201 
Q 5691 2819 5691 2113 
L 5691 0 
L 5113 0 
L 5113 2094 
Q 5113 2597 4934 2840 
Q 4756 3084 4391 3084 
Q 3944 3084 3684 2787 
Q 3425 2491 3425 1978 
L 3425 0 
L 2847 0 
L 2847 2094 
Q 2847 2600 2669 2842 
Q 2491 3084 2119 3084 
Q 1678 3084 1418 2786 
Q 1159 2488 1159 1978 
L 1159 0 
L 581 0 
L 581 3500 
L 1159 3500 
L 1159 2956 
Q 1356 3278 1631 3431 
Q 1906 3584 2284 3584 
Q 2666 3584 2933 3390 
Q 3200 3197 3328 2828 
z
" transform="scale(0.015625)"/>
       <path id="DejaVuSans-65" d="M 3597 1894 
L 3597 1613 
L 953 1613 
Q 991 1019 1311 708 
Q 1631 397 2203 397 
Q 2534 397 2845 478 
Q 3156 559 3463 722 
L 3463 178 
Q 3153 47 2828 -22 
Q 2503 -91 2169 -91 
Q 1331 -91 842 396 
Q 353 884 353 1716 
Q 353 2575 817 3079 
Q 1281 3584 2069 3584 
Q 2775 3584 3186 3129 
Q 3597 2675 3597 1894 
z
M 3022 2063 
Q 3016 2534 2758 2815 
Q 2500 3097 2075 3097 
Q 1594 3097 1305 2825 
Q 1016 2553 972 2059 
L 3022 2063 
z
" transform="scale(0.015625)"/>
       <path id="DejaVuSans-73" d="M 2834 3397 
L 2834 2853 
Q 2591 2978 2328 3040 
Q 2066 3103 1784 3103 
Q 1356 3103 1142 2972 
Q 928 2841 928 2578 
Q 928 2378 1081 2264 
Q 1234 2150 1697 2047 
L 1894 2003 
Q 2506 1872 2764 1633 
Q 3022 1394 3022 966 
Q 3022 478 2636 193 
Q 2250 -91 1575 -91 
Q 1294 -91 989 -36 
Q 684 19 347 128 
L 347 722 
Q 666 556 975 473 
Q 1284 391 1588 391 
Q 1994 391 2212 530 
Q 2431 669 2431 922 
Q 2431 1156 2273 1281 
Q 2116 1406 1581 1522 
L 1381 1569 
Q 847 1681 609 1914 
Q 372 2147 372 2553 
Q 372 3047 722 3315 
Q 1072 3584 1716 3584 
Q 2034 3584 2315 3537 
Q 2597 3491 2834 3397 
z
" transform="scale(0.015625)"/>
       <path id="DejaVuSans-61" d="M 2194 1759 
Q 1497 1759 1228 1600 
Q 959 1441 959 1056 
Q 959 750 1161 570 
Q 1363 391 1709 391 
Q 2188 391 2477 730 
Q 2766 1069 2766 1631 
L 2766 1759 
L 2194 1759 
z
M 3341 1997 
L 3341 0 
L 2766 0 
L 2766 531 
Q 2569 213 2275 61 
Q 1981 -91 1556 -91 
Q 1019 -91 701 211 
Q 384 513 384 1019 
Q 384 1609 779 1909 
Q 1175 2209 1959 2209 
L 2766 2209 
L 2766 2266 
Q 2766 2663 2505 2880 
Q 2244 3097 1772 3097 
Q 1472 3097 1187 3025 
Q 903 2953 641 2809 
L 641 3341 
Q 956 3463 1253 3523 
Q 1550 3584 1831 3584 
Q 2591 3584 2966 3190 
Q 3341 2797 3341 1997 
z
" transform="scale(0.015625)"/>
       <path id="DejaVuSans-6c" d="M 603 4863 
L 1178 4863 
L 1178 0 
L 603 0 
L 603 4863 
z
" transform="scale(0.015625)"/>
       <path id="DejaVuSans-20" transform="scale(0.015625)"/>
       <path id="DejaVuSans-74" d="M 1172 4494 
L 1172 3500 
L 2356 3500 
L 2356 3053 
L 1172 3053 
L 1172 1153 
Q 1172 725 1289 603 
Q 1406 481 1766 481 
L 2356 481 
L 2356 0 
L 1766 0 
Q 1100 0 847 248 
Q 594 497 594 1153 
L 594 3053 
L 172 3053 
L 172 3500 
L 594 3500 
L 594 4494 
L 1172 4494 
z
" transform="scale(0.015625)"/>
       <path id="DejaVuSans-72" d="M 2631 2963 
Q 2534 3019 2420 3045 
Q 2306 3072 2169 3072 
Q 1681 3072 1420 2755 
Q 1159 2438 1159 1844 
L 1159 0 
L 581 0 
L 581 3500 
L 1159 3500 
L 1159 2956 
Q 1341 3275 1631 3429 
Q 1922 3584 2338 3584 
Q 2397 3584 2469 3576 
Q 2541 3569 2628 3553 
L 2631 2963 
z
" transform="scale(0.015625)"/>
       <path id="DejaVuSans-70" d="M 1159 525 
L 1159 -1331 
L 581 -1331 
L 581 3500 
L 1159 3500 
L 1159 2969 
Q 1341 3281 1617 3432 
Q 1894 3584 2278 3584 
Q 2916 3584 3314 3078 
Q 3713 2572 3713 1747 
Q 3713 922 3314 415 
Q 2916 -91 2278 -91 
Q 1894 -91 1617 61 
Q 1341 213 1159 525 
z
M 3116 1747 
Q 3116 2381 2855 2742 
Q 2594 3103 2138 3103 
Q 1681 3103 1420 2742 
Q 1159 2381 1159 1747 
Q 1159 1113 1420 752 
Q 1681 391 2138 391 
Q 2594 391 2855 752 
Q 3116 1113 3116 1747 
z
" transform="scale(0.015625)"/>
       <path id="DejaVuSans-79" d="M 2059 -325 
Q 1816 -950 1584 -1140 
Q 1353 -1331 966 -1331 
L 506 -1331 
L 506 -850 
L 844 -850 
Q 1081 -850 1212 -737 
Q 1344 -625 1503 -206 
L 1606 56 
L 191 3500 
L 800 3500 
L 1894 763 
L 2988 3500 
L 3597 3500 
L 2059 -325 
z
" transform="scale(0.015625)"/>
      </defs>
      <use xlink:href="#DejaVuSans-4e"/>
      <use xlink:href="#DejaVuSans-6f" x="74.804688"/>
      <use xlink:href="#DejaVuSans-6e" x="135.986328"/>
      <use xlink:href="#DejaVuSans-64" x="199.365234"/>
      <use xlink:href="#DejaVuSans-69" x="262.841797"/>
      <use xlink:href="#DejaVuSans-6d" x="290.625"/>
      <use xlink:href="#DejaVuSans-65" x="388.037109"/>
      <use xlink:href="#DejaVuSans-6e" x="449.560547"/>
      <use xlink:href="#DejaVuSans-73" x="512.939453"/>
      <use xlink:href="#DejaVuSans-69" x="565.039062"/>
      <use xlink:href="#DejaVuSans-6f" x="592.822266"/>
      <use xlink:href="#DejaVuSans-6e" x="654.003906"/>
      <use xlink:href="#DejaVuSans-61" x="717.382812"/>
      <use xlink:href="#DejaVuSans-6c" x="778.662109"/>
      <use xlink:href="#DejaVuSans-20" x="806.445312"/>
      <use xlink:href="#DejaVuSans-65" x="838.232422"/>
      <use xlink:href="#DejaVuSans-6e" x="899.755859"/>
      <use xlink:href="#DejaVuSans-74" x="963.134766"/>
      <use xlink:href="#DejaVuSans-72" x="1002.34375"/>
      <use xlink:href="#DejaVuSans-6f" x="1041.207031"/>
      <use xlink:href="#DejaVuSans-70" x="1102.388672"/>
      <use xlink:href="#DejaVuSans-79" x="1165.865234"/>
     </g>
    </g>
   </g>
   <g id="matplotlib.axis_2">
    <g id="ytick_1">
     <g id="line2d_6">
      <defs>
       <path id="m3d8c2e2e3a" d="M 0 0 
L -3.5 0 
" style="stroke: #000000; stroke-width: 0.8"/>
      </defs>
      <g>
       <use xlink:href="#m3d8c2e2e3a" x="47.38125" y="160.44375" style="stroke: #000000; stroke-width: 0.8"/>
      </g>
     </g>
     <g id="text_7">
      <!-- 0.8 -->
      <g transform="translate(24.478125 164.242969) scale(0.1 -0.1)">
       <defs>
        <path id="DejaVuSans-2e" d="M 684 794 
L 1344 794 
L 1344 0 
L 684 0 
L 684 794 
z
" transform="scale(0.015625)"/>
        <path id="DejaVuSans-38" d="M 2034 2216 
Q 1584 2216 1326 1975 
Q 1069 1734 1069 1313 
Q 1069 891 1326 650 
Q 1584 409 2034 409 
Q 2484 409 2743 651 
Q 3003 894 3003 1313 
Q 3003 1734 2745 1975 
Q 2488 2216 2034 2216 
z
M 1403 2484 
Q 997 2584 770 2862 
Q 544 3141 544 3541 
Q 544 4100 942 4425 
Q 1341 4750 2034 4750 
Q 2731 4750 3128 4425 
Q 3525 4100 3525 3541 
Q 3525 3141 3298 2862 
Q 3072 2584 2669 2484 
Q 3125 2378 3379 2068 
Q 3634 1759 3634 1313 
Q 3634 634 3220 271 
Q 2806 -91 2034 -91 
Q 1263 -91 848 271 
Q 434 634 434 1313 
Q 434 1759 690 2068 
Q 947 2378 1403 2484 
z
M 1172 3481 
Q 1172 3119 1398 2916 
Q 1625 2713 2034 2713 
Q 2441 2713 2670 2916 
Q 2900 3119 2900 3481 
Q 2900 3844 2670 4047 
Q 2441 4250 2034 4250 
Q 1625 4250 1398 4047 
Q 1172 3844 1172 3481 
z
" transform="scale(0.015625)"/>
       </defs>
       <use xlink:href="#DejaVuSans-30"/>
       <use xlink:href="#DejaVuSans-2e" x="63.623047"/>
       <use xlink:href="#DejaVuSans-38" x="95.410156"/>
      </g>
     </g>
    </g>
    <g id="ytick_2">
     <g id="line2d_7">
      <g>
       <use xlink:href="#m3d8c2e2e3a" x="47.38125" y="123.982617" style="stroke: #000000; stroke-width: 0.8"/>
      </g>
     </g>
     <g id="text_8">
      <!-- 0.9 -->
      <g transform="translate(24.478125 127.781836) scale(0.1 -0.1)">
       <defs>
        <path id="DejaVuSans-39" d="M 703 97 
L 703 672 
Q 941 559 1184 500 
Q 1428 441 1663 441 
Q 2288 441 2617 861 
Q 2947 1281 2994 2138 
Q 2813 1869 2534 1725 
Q 2256 1581 1919 1581 
Q 1219 1581 811 2004 
Q 403 2428 403 3163 
Q 403 3881 828 4315 
Q 1253 4750 1959 4750 
Q 2769 4750 3195 4129 
Q 3622 3509 3622 2328 
Q 3622 1225 3098 567 
Q 2575 -91 1691 -91 
Q 1453 -91 1209 -44 
Q 966 3 703 97 
z
M 1959 2075 
Q 2384 2075 2632 2365 
Q 2881 2656 2881 3163 
Q 2881 3666 2632 3958 
Q 2384 4250 1959 4250 
Q 1534 4250 1286 3958 
Q 1038 3666 1038 3163 
Q 1038 2656 1286 2365 
Q 1534 2075 1959 2075 
z
" transform="scale(0.015625)"/>
       </defs>
       <use xlink:href="#DejaVuSans-30"/>
       <use xlink:href="#DejaVuSans-2e" x="63.623047"/>
       <use xlink:href="#DejaVuSans-39" x="95.410156"/>
      </g>
     </g>
    </g>
    <g id="ytick_3">
     <g id="line2d_8">
      <g>
       <use xlink:href="#m3d8c2e2e3a" x="47.38125" y="87.521484" style="stroke: #000000; stroke-width: 0.8"/>
      </g>
     </g>
     <g id="text_9">
      <!-- 1.0 -->
      <g transform="translate(24.478125 91.320703) scale(0.1 -0.1)">
       <use xlink:href="#DejaVuSans-31"/>
       <use xlink:href="#DejaVuSans-2e" x="63.623047"/>
       <use xlink:href="#DejaVuSans-30" x="95.410156"/>
      </g>
     </g>
    </g>
    <g id="ytick_4">
     <g id="line2d_9">
      <g>
       <use xlink:href="#m3d8c2e2e3a" x="47.38125" y="51.060352" style="stroke: #000000; stroke-width: 0.8"/>
      </g>
     </g>
     <g id="text_10">
      <!-- 1.1 -->
      <g transform="translate(24.478125 54.85957) scale(0.1 -0.1)">
       <use xlink:href="#DejaVuSans-31"/>
       <use xlink:href="#DejaVuSans-2e" x="63.623047"/>
       <use xlink:href="#DejaVuSans-31" x="95.410156"/>
      </g>
     </g>
    </g>
    <g id="ytick_5">
     <g id="line2d_10">
      <g>
       <use xlink:href="#m3d8c2e2e3a" x="47.38125" y="14.599219" style="stroke: #000000; stroke-width: 0.8"/>
      </g>
     </g>
     <g id="text_11">
      <!-- 1.2 -->
      <g transform="translate(24.478125 18.398438) scale(0.1 -0.1)">
       <use xlink:href="#DejaVuSans-31"/>
       <use xlink:href="#DejaVuSans-2e" x="63.623047"/>
       <use xlink:href="#DejaVuSans-32" x="95.410156"/>
      </g>
     </g>
    </g>
    <g id="text_12">
     <!-- Reduced temperature -->
     <g transform="translate(18.398438 142.205078) rotate(-90) scale(0.1 -0.1)">
      <defs>
       <path id="DejaVuSans-52" d="M 2841 2188 
Q 3044 2119 3236 1894 
Q 3428 1669 3622 1275 
L 4263 0 
L 3584 0 
L 2988 1197 
Q 2756 1666 2539 1819 
Q 2322 1972 1947 1972 
L 1259 1972 
L 1259 0 
L 628 0 
L 628 4666 
L 2053 4666 
Q 2853 4666 3247 4331 
Q 3641 3997 3641 3322 
Q 3641 2881 3436 2590 
Q 3231 2300 2841 2188 
z
M 1259 4147 
L 1259 2491 
L 2053 2491 
Q 2509 2491 2742 2702 
Q 2975 2913 2975 3322 
Q 2975 3731 2742 3939 
Q 2509 4147 2053 4147 
L 1259 4147 
z
" transform="scale(0.015625)"/>
       <path id="DejaVuSans-75" d="M 544 1381 
L 544 3500 
L 1119 3500 
L 1119 1403 
Q 1119 906 1312 657 
Q 1506 409 1894 409 
Q 2359 409 2629 706 
Q 2900 1003 2900 1516 
L 2900 3500 
L 3475 3500 
L 3475 0 
L 2900 0 
L 2900 538 
Q 2691 219 2414 64 
Q 2138 -91 1772 -91 
Q 1169 -91 856 284 
Q 544 659 544 1381 
z
M 1991 3584 
L 1991 3584 
z
" transform="scale(0.015625)"/>
       <path id="DejaVuSans-63" d="M 3122 3366 
L 3122 2828 
Q 2878 2963 2633 3030 
Q 2388 3097 2138 3097 
Q 1578 3097 1268 2742 
Q 959 2388 959 1747 
Q 959 1106 1268 751 
Q 1578 397 2138 397 
Q 2388 397 2633 464 
Q 2878 531 3122 666 
L 3122 134 
Q 2881 22 2623 -34 
Q 2366 -91 2075 -91 
Q 1284 -91 818 406 
Q 353 903 353 1747 
Q 353 2603 823 3093 
Q 1294 3584 2113 3584 
Q 2378 3584 2631 3529 
Q 2884 3475 3122 3366 
z
" transform="scale(0.015625)"/>
      </defs>
      <use xlink:href="#DejaVuSans-52"/>
      <use xlink:href="#DejaVuSans-65" x="64.982422"/>
      <use xlink:href="#DejaVuSans-64" x="126.505859"/>
      <use xlink:href="#DejaVuSans-75" x="189.982422"/>
      <use xlink:href="#DejaVuSans-63" x="253.361328"/>
      <use xlink:href="#DejaVuSans-65" x="308.341797"/>
      <use xlink:href="#DejaVuSans-64" x="369.865234"/>
      <use xlink:href="#DejaVuSans-20" x="433.341797"/>
      <use xlink:href="#DejaVuSans-74" x="465.128906"/>
      <use xlink:href="#DejaVuSans-65" x="504.337891"/>
      <use xlink:href="#DejaVuSans-6d" x="565.861328"/>
      <use xlink:href="#DejaVuSans-70" x="663.273438"/>
      <use xlink:href="#DejaVuSans-65" x="726.75"/>
      <use xlink:href="#DejaVuSans-72" x="788.273438"/>
      <use xlink:href="#DejaVuSans-61" x="829.386719"/>
      <use xlink:href="#DejaVuSans-74" x="890.666016"/>
      <use xlink:href="#DejaVuSans-75" x="929.875"/>
      <use xlink:href="#DejaVuSans-72" x="993.253906"/>
      <use xlink:href="#DejaVuSans-65" x="1032.117188"/>
     </g>
    </g>
   </g>
   <g id="line2d_11">
    <path d="M 32.147848 202.6 
L 48.449478 182.561402 
L 59.913162 168.764822 
L 69.608896 157.575564 
L 77.932555 148.531483 
L 85.16687 142.836956 
L 228.332143 142.836956 
L 228.920297 142.366671 
L 233.000872 137.230483 
L 237.017041 131.794691 
L 240.968243 126.089202 
L 245.403953 119.271785 
L 249.754312 112.170091 
L 254.546829 103.877286 
L 259.232658 95.297776 
L 263.813214 86.462493 
L 268.781452 76.37786 
L 273.624852 66.041823 
L 278.812273 54.413965 
L 283.85719 42.545385 
L 289 29.868403 
L 289 29.868403 
" clip-path="url(#pad9c822fcf)" style="fill: none; stroke: #000000; stroke-linecap: square"/>
   </g>
   <g id="line2d_12">
    <path d="M 31.36641 202.6 
L 60.584211 166.518576 
L 70.331487 155.060512 
L 78.708306 145.747626 
L 85.997361 138.207023 
L 92.406939 132.135882 
L 98.094466 129.692805 
L 218.542379 129.692805 
L 219.227046 129.319258 
L 222.623796 125.605878 
L 225.976509 121.634099 
L 229.941972 116.55712 
L 233.844623 111.172146 
L 237.684662 105.508317 
L 242.08588 98.582192 
L 246.402687 91.347133 
L 250.635769 83.834244 
L 255.372205 74.942562 
L 260.002089 65.758579 
L 264.527352 56.312725 
L 269.495931 45.405869 
L 274.338242 34.233439 
L 279.574892 21.542095 
L 284.665278 8.590403 
L 288.287137 -1 
L 288.287137 -1 
" clip-path="url(#pad9c822fcf)" style="fill: none; stroke: #000000; stroke-linecap: square"/>
   </g>
   <g id="line2d_13">
    <path d="M 30.607885 202.6 
L 61.250003 164.272329 
L 71.047987 152.54546 
L 79.477041 142.96377 
L 86.819816 135.154361 
L 93.284552 128.814415 
L 99.028631 123.696568 
L 104.173548 119.597664 
L 108.814791 117.840956 
L 209.495444 117.75492 
L 212.62603 114.979353 
L 215.715547 111.945799 
L 218.76553 108.673357 
L 222.524137 104.273332 
L 226.224394 99.558076 
L 229.867505 94.555157 
L 233.454397 89.289229 
L 237.685525 82.653856 
L 241.837956 75.705261 
L 245.912798 68.473205 
L 250.570212 59.712379 
L 255.125414 50.637814 
L 259.5804 41.281232 
L 264.551835 30.278016 
L 269.398524 18.978376 
L 274.123993 7.413295 
L 277.428753 -1 
L 277.428753 -1 
" clip-path="url(#pad9c822fcf)" style="fill: none; stroke: #000000; stroke-linecap: square"/>
   </g>
   <g id="line2d_14">
    <path d="M 29.871468 202.6 
L 61.910619 162.026082 
L 71.758496 150.030409 
L 80.238885 140.179913 
L 87.634387 132.101699 
L 94.153195 125.492948 
L 99.952641 120.106296 
L 105.154168 115.738587 
L 109.853218 112.222136 
L 114.125955 109.417908 
L 118.033981 107.210134 
L 121.627699 106.985474 
L 198.908354 106.985474 
L 199.819126 106.7303 
L 202.524028 104.962483 
L 205.190406 102.984354 
L 207.821034 100.807813 
L 211.276706 97.616595 
L 214.676836 94.117837 
L 218.024522 90.334734 
L 221.322126 86.2886 
L 224.571478 81.99896 
L 228.567484 76.321546 
L 232.492569 70.323006 
L 236.348528 64.031534 
L 240.136881 57.472339 
L 244.595556 49.279511 
L 248.960974 40.768119 
L 253.235201 31.968566 
L 258.109265 21.373781 
L 262.865232 10.460356 
L 267.611485 -1 
L 267.611485 -1 
" clip-path="url(#pad9c822fcf)" style="fill: none; stroke: #000000; stroke-linecap: square"/>
   </g>
   <g id="line2d_15">
    <path d="M 29.156389 202.6 
L 36.91051 192.707528 
L 62.566141 159.779836 
L 72.463115 147.515357 
L 80.99396 137.396056 
L 88.441225 129.049037 
L 95.013049 122.171481 
L 100.866712 116.516025 
L 106.123603 111.87951 
L 110.87911 108.094254 
L 115.209345 105.02122 
L 119.175854 102.544642 
L 122.82899 100.567751 
L 126.21037 99.00938 
L 129.354708 97.801222 
L 132.291198 96.926394 
L 187.239474 96.926394 
L 188.319517 96.66536 
L 191.503629 95.427393 
L 194.612519 93.911535 
L 197.655472 92.129911 
L 200.63981 90.095362 
L 203.571334 87.820934 
L 206.454665 85.319542 
L 209.293497 82.603752 
L 213.014438 78.669993 
L 216.667018 74.403555 
L 220.255457 69.829576 
L 223.783024 64.971254 
L 227.252298 59.849899 
L 231.510046 53.107904 
L 235.683231 46.019829 
L 239.774565 38.616522 
L 243.786373 30.925553 
L 248.498483 21.351202 
L 253.102359 11.435732 
L 257.601108 1.212268 
L 258.54448 -1 
L 258.54448 -1 
" clip-path="url(#pad9c822fcf)" style="fill: none; stroke: #000000; stroke-linecap: square"/>
   </g>
   <g id="line2d_16">
    <path d="M 28.461914 202.6 
L 37.468433 190.998891 
L 63.216645 157.533589 
L 73.16194 145.000305 
L 81.742386 134.612199 
L 89.240475 125.996375 
L 95.864292 118.850014 
L 101.771057 112.925753 
L 107.082105 108.020433 
L 111.892766 103.966372 
L 116.279097 100.624533 
L 120.302589 97.879149 
L 124.013538 95.633454 
L 127.453506 93.806278 
L 130.657155 92.329315 
L 133.653623 91.144916 
L 136.467588 90.204293 
L 139.120087 89.46606 
L 144.010371 88.461255 
L 148.441366 87.906888 
L 152.501542 87.639851 
L 158.041196 87.525633 
L 167.698457 87.444266 
L 172.023276 87.195121 
L 176.104862 86.706394 
L 179.990632 85.941544 
L 183.716305 84.882477 
L 187.309069 83.523178 
L 190.789797 81.865471 
L 194.17464 79.916187 
L 197.476181 77.685251 
L 200.704287 75.184397 
L 203.866744 72.426293 
L 206.969732 69.423962 
L 210.018188 66.190393 
L 213.016083 62.738286 
L 216.940098 57.816631 
L 220.785934 52.55571 
L 224.558289 46.981146 
L 228.260879 41.116619 
L 231.896711 34.983903 
L 236.351374 26.971118 
L 240.709649 18.605654 
L 244.974977 9.919063 
L 249.150384 0.93954 
L 250.02436 -1 
L 250.02436 -1 
" clip-path="url(#pad9c822fcf)" style="fill: none; stroke: #000000; stroke-width: 2; stroke-linecap: square"/>
   </g>
   <g id="line2d_17">
    <path d="M 27.787342 202.6 
L 38.022717 189.290254 
L 63.862207 155.287342 
L 73.855066 142.485253 
L 82.484279 131.828343 
L 90.03228 122.943714 
L 96.707092 115.528547 
L 102.66588 109.335481 
L 108.029917 104.161356 
L 112.894475 99.83849 
L 117.335552 96.227846 
L 121.414582 93.213657 
L 125.181803 90.699157 
L 128.678721 88.603175 
L 131.939942 86.857408 
L 134.994551 85.404204 
L 137.867172 84.194775 
L 143.147394 82.347909 
L 147.915519 81.054414 
L 152.272633 80.123437 
L 158.201396 79.111908 
L 168.501133 77.4426 
L 173.101707 76.454282 
L 177.437741 75.244211 
L 181.560831 73.767751 
L 184.210767 72.623261 
L 188.060143 70.657912 
L 191.780133 68.39223 
L 195.389582 65.829972 
L 198.903111 62.979175 
L 202.332153 59.850487 
L 205.685713 56.456032 
L 208.970935 52.808653 
L 212.193536 48.921394 
L 215.358123 44.807172 
L 219.493706 38.990139 
L 223.539838 32.820306 
L 227.502081 26.324262 
L 231.384885 19.526657 
L 235.191894 12.45021 
L 239.848679 3.244131 
L 241.897908 -1 
L 241.897908 -1 
" clip-path="url(#pad9c822fcf)" style="fill: none; stroke: #000000; stroke-linecap: square"/>
   </g>
   <g id="line2d_18">
    <path d="M 27.132005 202.6 
L 38.57341 187.581618 
L 64.502903 153.041096 
L 74.542584 139.970202 
L 83.219751 129.044486 
L 90.816775 119.891052 
L 97.541617 112.207081 
L 103.55138 105.745209 
L 108.967276 100.302279 
L 113.884515 95.710608 
L 118.379036 91.831159 
L 122.512213 88.548165 
L 126.334226 85.764859 
L 129.886524 83.400073 
L 133.203656 81.385501 
L 136.314651 79.663491 
L 142.012877 76.909416 
L 147.137845 74.82939 
L 151.805665 73.199803 
L 158.136428 71.255476 
L 169.087405 67.962067 
L 173.962998 66.226154 
L 178.550612 64.289869 
L 181.4775 62.859937 
L 184.314705 61.306913 
L 187.072957 59.624813 
L 191.081395 56.853048 
L 194.956083 53.780951 
L 198.715632 50.412278 
L 202.3745 46.755066 
L 205.944017 42.819962 
L 209.433138 38.619093 
L 212.849003 34.165298 
L 216.197358 29.471624 
L 219.482873 24.550987 
L 223.772336 17.658734 
L 227.964177 10.413681 
L 232.06426 2.842417 
L 234.051764 -1 
L 234.051764 -1 
" clip-path="url(#pad9c822fcf)" style="fill: none; stroke: #000000; stroke-linecap: square"/>
   </g>
   <g id="line2d_19">
    <defs>
     <path id="m883febe5a8" d="M 0 3 
C 0.795609 3 1.55874 2.683901 2.12132 2.12132 
C 2.683901 1.55874 3 0.795609 3 0 
C 3 -0.795609 2.683901 -1.55874 2.12132 -2.12132 
C 1.55874 -2.683901 0.795609 -3 0 -3 
C -0.795609 -3 -1.55874 -2.683901 -2.12132 -2.12132 
C -2.683901 -1.55874 -3 -0.795609 -3 0 
C -3 0.795609 -2.683901 1.55874 -2.12132 2.12132 
C -1.55874 2.683901 -0.795609 3 0 3 
z
" style="stroke: #000000"/>
    </defs>
    <g clip-path="url(#pad9c822fcf)">
     <use xlink:href="#m883febe5a8" x="160.7" y="87.521484" style="stroke: #000000"/>
    </g>
   </g>
   <g id="line2d_20">
    <path d="M 56.828598 175.235994 
L 71.613504 157.040066 
L 81.395605 145.346397 
L 89.369363 136.151701 
L 96.30018 128.491105 
L 102.525325 121.937405 
L 108.149994 116.332158 
L 113.319863 111.485561 
L 118.160664 107.246725 
L 122.702133 103.562106 
L 126.958988 100.389719 
L 131.035913 97.628048 
L 134.825651 95.321507 
L 138.548516 93.316157 
L 142.081687 91.665615 
L 145.379957 90.358246 
L 148.560885 89.32051 
L 151.576676 88.546877 
L 154.697719 87.96924 
L 157.505224 87.64928 
L 158.44387 87.585369 
L 158.44387 87.585369 
" clip-path="url(#pad9c822fcf)" style="fill: none; stroke-dasharray: 5.55,2.4; stroke-dashoffset: 0; stroke: #000000; stroke-width: 1.5"/>
   </g>
   <g id="line2d_21">
    <path d="M 251.355189 175.235994 
L 240.444555 159.750904 
L 226.482164 139.987768 
L 219.74078 130.843698 
L 214.245616 123.751226 
L 209.382915 117.829631 
L 204.94795 112.776019 
L 200.905183 108.497157 
L 197.095423 104.779469 
L 193.509814 101.579814 
L 190.06635 98.795264 
L 186.766016 96.402376 
L 183.512 94.315408 
L 180.419115 92.587652 
L 177.391978 91.141293 
L 174.447641 89.968254 
L 171.401922 88.99768 
L 168.440462 88.289877 
L 165.705774 87.841175 
L 162.944218 87.585369 
L 162.944218 87.585369 
" clip-path="url(#pad9c822fcf)" style="fill: none; stroke-dasharray: 5.55,2.4; stroke-dashoffset: 0; stroke: #000000; stroke-width: 1.5"/>
   </g>
   <g id="patch_3">
    <path d="M 47.38125 160.44375 
L 47.38125 14.599219 
" style="fill: none; stroke: #000000; stroke-width: 0.8; stroke-linejoin: miter; stroke-linecap: square"/>
   </g>
   <g id="patch_4">
    <path d="M 274.01875 160.44375 
L 274.01875 14.599219 
" style="fill: none; stroke: #000000; stroke-width: 0.8; stroke-linejoin: miter; stroke-linecap: square"/>
   </g>
   <g id="patch_5">
    <path d="M 47.38125 160.44375 
L 274.01875 160.44375 
" style="fill: none; stroke: #000000; stroke-width: 0.8; stroke-linejoin: miter; stroke-linecap: square"/>
   </g>
   <g id="patch_6">
    <path d="M 47.38125 14.599219 
L 274.01875 14.599219 
" style="fill: none; stroke: #000000; stroke-width: 0.8; stroke-linejoin: miter; stroke-linecap: square"/>
   </g>
  </g>
 </g>
 <defs>
  <clipPath id="pad9c822fcf">
   <rect x="47.38125" y="14.599219" width="226.6375" height="145.844531"/>
  </clipPath>
 </defs>
</svg>
